<?xml version="1.0" encoding="UTF-8" standalone="no"?>
<svg
   xmlns:dc="http://purl.org/dc/elements/1.1/"
   xmlns:cc="http://creativecommons.org/ns#"
   xmlns:rdf="http://www.w3.org/1999/02/22-rdf-syntax-ns#"
   xmlns:svg="http://www.w3.org/2000/svg"
   xmlns="http://www.w3.org/2000/svg"
   xmlns:sodipodi="http://sodipodi.sourceforge.net/DTD/sodipodi-0.dtd"
   xmlns:inkscape="http://www.inkscape.org/namespaces/inkscape"
   width="398.73563mm"
   height="349.03488mm"
   viewBox="0 0 398.73562 349.03489"
   version="1.1"
   id="svg2"
   inkscape:version="0.91 r13725"
   sodipodi:docname="DIYBioreactorLasercut.svg">
  <metadata
     id="metadata78">
    <rdf:RDF>
      <cc:Work
         rdf:about="">
        <dc:format>image/svg+xml</dc:format>
        <dc:type
           rdf:resource="http://purl.org/dc/dcmitype/StillImage" />
        <dc:title></dc:title>
      </cc:Work>
    </rdf:RDF>
  </metadata>
  <defs
     id="defs76" />
  <sodipodi:namedview
     pagecolor="#ffffff"
     bordercolor="#666666"
     borderopacity="1"
     objecttolerance="10"
     gridtolerance="10"
     guidetolerance="10"
     inkscape:pageopacity="0"
     inkscape:pageshadow="2"
     inkscape:window-width="1920"
     inkscape:window-height="1003"
     id="namedview74"
     showgrid="false"
     fit-margin-top="2"
     fit-margin-left="2"
     fit-margin-right="2"
     fit-margin-bottom="2"
     inkscape:zoom="0.57773767"
     inkscape:cx="474.18507"
     inkscape:cy="463.49369"
     inkscape:window-x="-9"
     inkscape:window-y="-9"
     inkscape:window-maximized="1"
     inkscape:current-layer="svg2" />
  <desc
     id="desc4">Output from Flights of Ideas SVG Sketchup Plugin</desc>
  <path
     id="face0-cut"
     style="fill:none;stroke:#000000;stroke-width:0.35277778;stroke-linecap:round;stroke-linejoin:round;stroke-miterlimit:4;stroke-dasharray:none;stroke-opacity:1"
     d="m 7.3516104,6.7097341 0,83.9999999 -2,8 0,35.999996 2,8 0,24 5.5366256,0 -0.03663,-2 -1.3,0 0,-2 1.3,0 0,-3 3,0 0,3 1.3,0 0,2 -1.3,0 0,2 6.5,0 0,3 10,0 0,-3 5,0 0,-2 3,0 0,-15 -3,0 0,-20 3,0 0,-20 -3,0 0,-39.999996 3,0 0,-20 -3,0 0,-20 3,0 0,-15 -3,0 0,-7.9999999 -5,0 0,-3 -10,0 0,3 -6.5,0 0,2 1.3,0 0,1.9999999 -1.3,0 0,3 -3,0 0,-3 -1.3,0 0,-1.9999999 1.3,0 0,-2 -5.4999996,0 m 5.9999996,127.9999959 -3,0 0,-10 3,0 0,10 m -3,-35.999996 3,0 0,9.999996 -3,0 0,-9.999996 m 1.5,19.499996 -0.388229,-0.0511 -0.361767,-0.14986 -0.31066,-0.23838 -0.238378,-0.31066 -0.149851,-0.36177 -0.05111,-0.38823 0.05111,-0.38823 0.149851,-0.36177 0.238378,-0.31066 0.31066,-0.23838 0.361771,-0.14985 0.388229,-0.0511 0.388229,0.0511 0.361771,0.14985 0.31066,0.23838 0.238378,0.31066 0.149851,0.36177 0.05111,0.38824 -0.05111,0.38823 -0.149851,0.36177 -0.238378,0.31066 -0.31066,0.23838 -0.361771,0.14985 -0.388229,0.0511"
     inkscape:connector-curvature="0" />
  <path
     id="face1-cut"
     style="fill:none;stroke:#000000;stroke-width:0.35277778;stroke-linecap:round;stroke-linejoin:round;stroke-miterlimit:4;stroke-dasharray:none;stroke-opacity:1"
     d="m 159.54095,27.543397 -3,0 0,3 0,17 27,0 0,-20 -24,0 m 5,16.7 0,-13.4 12.5,0 0,13.4 -12.5,0 m 16,1.8 -0.38823,-0.0511 -0.36177,-0.14985 -0.31066,-0.23838 -0.23838,-0.31066 -0.14985,-0.36177 -0.0511,-0.38823 0.0511,-0.38823 0.14985,-0.36177 0.23838,-0.31066 0.31066,-0.23838 0.36177,-0.14985 0.38823,-0.0511 0.38822,0.0511 0.36178,0.14985 0.31066,0.23838 0.23837,0.31066 0.14985,0.36177 0.0511,0.38823 -0.0511,0.38823 -0.14985,0.36177 -0.23837,0.31066 -0.31066,0.23838 -0.36178,0.14985 -0.38822,0.0511 m 1.44888,-15.88823 0.0511,0.38823 -0.0511,0.38823 -0.14985,0.36177 -0.23837,0.31066 -0.31066,0.23838 -0.36178,0.14985 -0.38822,0.0511 -0.38823,-0.0511 -0.36177,-0.14985 -0.31066,-0.23838 -0.23838,-0.31066 -0.14985,-0.36177 -0.0511,-0.38823 0.0511,-0.38823 0.14985,-0.36177 0.23838,-0.31066 0.31066,-0.23838 0.36177,-0.14985 0.38823,-0.0511 0.38822,0.0511 0.36178,0.14985 0.31066,0.23838 0.23837,0.31066 0.14985,0.36177 m -23.89777,14.77646 -0.0511,-0.38823 0.0511,-0.38823 0.14985,-0.36177 0.23838,-0.31066 0.31066,-0.23838 0.36177,-0.14985 0.38823,-0.0511 0.38822,0.0511 0.36178,0.14985 0.31066,0.23838 0.23837,0.31066 0.14985,0.36177 0.0511,0.38823 -0.0511,0.38823 -0.14985,0.36177 -0.23837,0.31066 -0.31066,0.23838 -0.36178,0.14985 -0.38822,0.0511 -0.38823,-0.0511 -0.36177,-0.14985 -0.31066,-0.23838 -0.23838,-0.31066 -0.14985,-0.36177 m 1.44889,-15.88823 0.38822,0.0511 0.36178,0.14985 0.31066,0.23838 0.23837,0.31066 0.14985,0.36177 0.0511,0.38823 -0.0511,0.38823 -0.14985,0.36177 -0.23837,0.31066 -0.31066,0.23838 -0.36178,0.14985 -0.38822,0.0511 -0.38823,-0.0511 -0.36177,-0.14985 -0.31066,-0.23838 -0.23838,-0.31066 -0.14985,-0.36177 -0.0511,-0.38823 0.0511,-0.38823 0.14985,-0.36177 0.23838,-0.31066 0.31066,-0.23838 0.36177,-0.14985 0.38823,-0.0511"
     inkscape:connector-curvature="0" />
  <path
     id="face2-cut"
     style="fill:none;stroke:#000000;stroke-width:0.35277778;stroke-linecap:round;stroke-linejoin:round;stroke-miterlimit:4;stroke-dasharray:none;stroke-opacity:1"
     d="m 215.0789,27.427196 -27,0 0,20 27,0 0,-20 m -3,18.5 -0.38823,-0.0511 -0.36177,-0.14985 -0.31066,-0.23838 -0.23838,-0.31066 -0.14985,-0.36177 -0.0511,-0.38823 0.0511,-0.38823 0.14985,-0.36177 0.23838,-0.31066 0.31066,-0.23838 0.36177,-0.14985 0.38823,-0.0511 0.38822,0.0511 0.36178,0.14985 0.31066,0.23838 0.23837,0.31066 0.14985,0.36177 0.0511,0.38823 -0.0511,0.38823 -0.14985,0.36177 -0.23837,0.31066 -0.31066,0.23838 -0.36178,0.14985 -0.38822,0.0511 m 0,-14 -0.38823,-0.0511 -0.36177,-0.14985 -0.31066,-0.23838 -0.23838,-0.31066 -0.14985,-0.36177 -0.0511,-0.38823 0.0511,-0.38823 0.14985,-0.36177 0.23838,-0.31066 0.31066,-0.23838 0.36177,-0.14985 0.38823,-0.0511 0.38822,0.0511 0.36178,0.14985 0.31066,0.23838 0.23837,0.31066 0.14985,0.36177 0.0511,0.38823 -0.0511,0.38823 -0.14985,0.36177 -0.23837,0.31066 -0.31066,0.23838 -0.36178,0.14985 -0.38822,0.0511 m -19.70097,13.25 -0.23837,0.31066 -0.31066,0.23838 -0.36178,0.14985 -0.38822,0.0511 -0.38823,-0.0511 -0.36177,-0.14985 -0.31066,-0.23838 -0.23838,-0.31066 -0.14985,-0.36177 -0.0511,-0.38823 0.0511,-0.38823 0.14985,-0.36177 0.23838,-0.31066 0.31066,-0.23838 0.36177,-0.14985 0.38823,-0.0511 0.38822,0.0511 0.36178,0.14985 0.31066,0.23838 0.23837,0.31066 0.14985,0.36177 0.0511,0.38823 -0.0511,0.38823 -0.14985,0.36177 m -0.54903,-13.45096 -0.36178,0.14985 -0.38822,0.0511 -0.38823,-0.0511 -0.36177,-0.14985 -0.31066,-0.23838 -0.23838,-0.31066 -0.14985,-0.36177 -0.0511,-0.38823 0.0511,-0.38823 0.14985,-0.36177 0.23838,-0.31066 0.31066,-0.23838 0.36177,-0.14985 0.38823,-0.0511 0.38822,0.0511 0.36178,0.14985 0.31066,0.23838 0.23837,0.31066 0.14985,0.36177 0.0511,0.38823 -0.0511,0.38823 -0.14985,0.36177 -0.23837,0.31066 -0.31066,0.23838 m 16.25,9.90096 0,-8.4 -2,0 0,-2.5 3,0 0,13.4 -3,0 0,-2.5 2,0 m -12.5,-10.9 3,0 0,2.5 -2,0 0,8.4 2,0 0,2.5 -3,0 0,-13.4"
     inkscape:connector-curvature="0" />
  <path
     id="face3-cut"
     style="fill:none;stroke:#000000;stroke-width:0.35277778;stroke-linecap:round;stroke-linejoin:round;stroke-miterlimit:4;stroke-dasharray:none;stroke-opacity:1"
     d="m 4.0732095,183.41469 0,79 172.0000005,0 0,-79 -3,0 0,-3 -15,0 0,3 -15,0 0,2 1.3,0 0,2 -1.3,0 0,3 -3,0 0,-3 -1.30001,0 0,-2 1.30001,0 0,-2 -15.00001,0 0,-3 -15,0 0,3 -39.999991,0 0,-3 -15,0 0,3 -15,0 0,2 1.3,0 0,2 -1.3,0 0,3 -3,0 0,-3 -1.3,0 0,-2 1.3,0 0,-2 -15,0 0,-3 -14.9999995,0 0,3 -3,0 m 4.5,70 0.388229,0.0511 0.361771,0.14985 0.31066,0.23837 0.238378,0.31066 0.1498515,0.36178 0.05111,0.38822 -0.05111,0.38823 -0.1498515,0.36177 -0.238378,0.31066 -0.31066,0.23838 -0.361771,0.14985 -0.388229,0.0511 -0.388228,-0.0511 -0.361772,-0.14985 -0.31066,-0.23838 -0.238378,-0.31066 -0.149851,-0.36177 -0.05111,-0.38823 0.05111,-0.38822 0.149851,-0.36178 0.238378,-0.31066 0.31066,-0.23837 0.361772,-0.14985 0.388228,-0.0511 m 161.5000005,-14.24741 0,-12 3,0 0,12 -3,0 m 3,-31.6 -3,0 0,-9 3,0 0,9 m -1.5,45.84741 0.38822,0.0511 0.36178,0.14985 0.31066,0.23837 0.23837,0.31066 0.14985,0.36178 0.0511,0.38822 -0.0511,0.38823 -0.14985,0.36177 -0.23837,0.31066 -0.31066,0.23838 -0.36178,0.14985 -0.38822,0.0511 -0.38823,-0.0511 -0.36177,-0.14985 -0.31066,-0.23838 -0.23838,-0.31066 -0.14985,-0.36177 -0.0511,-0.38823 0.0511,-0.38822 0.14985,-0.36178 0.23838,-0.31066 0.31066,-0.23837 0.36177,-0.14985 0.38823,-0.0511 M 7.0732095,207.56728 l 0,-9 3.0000005,0 0,9 -3.0000005,0 m 0,19.6 3.0000005,0 0,12 -3.0000005,0 0,-12"
     inkscape:connector-curvature="0" />
  <path
     id="face4-cut"
     style="fill:none;stroke:#000000;stroke-width:0.35277778;stroke-linecap:round;stroke-linejoin:round;stroke-miterlimit:4;stroke-dasharray:none;stroke-opacity:1"
     d="m 45.163989,175.80187 212.000001,0 0,-171.999996 -212.000001,0 0,171.999996 m 21.5,-149.999996 42.000001,0 0,42 -42.000001,0 0,-42 m 42.000001,126.999996 -42.000001,0 0,-42 42.000001,0 0,42 m 2.5,-83.499996 0.38822,0.05111 0.36178,0.149851 0.31066,0.238378 0.23837,0.31066 0.14985,0.361771 0.0511,0.388229 -0.0511,0.388228 -0.14985,0.361772 -0.23837,0.31066 -0.31066,0.238378 -0.36178,0.149851 -0.38822,0.05111 -0.38823,-0.05111 -0.36177,-0.149851 -0.31066,-0.238378 -0.23838,-0.31066 -0.14985,-0.361772 -0.0511,-0.388228 0.0511,-0.388229 0.14985,-0.361771 0.23838,-0.31066 0.31066,-0.238378 0.36177,-0.149851 0.38823,-0.05111 m 1.06066,-46.56066 0.23837,0.31066 0.14985,0.361771 0.0511,0.388229 -0.0511,0.388228 -0.14985,0.361772 -0.23837,0.31066 -0.31066,0.238378 -0.36178,0.149851 -0.38822,0.05111 -0.38823,-0.05111 -0.36177,-0.149851 -0.31066,-0.238378 -0.23838,-0.31066 -0.14985,-0.361772 -0.0511,-0.388228 0.0511,-0.388229 0.14985,-0.361771 0.23838,-0.31066 0.31066,-0.238378 0.36177,-0.149851 0.38823,-0.05111 0.38822,0.05111 0.36178,0.149851 0.31066,0.238378 m -48.060661,-0.43934 0.388229,0.05111 0.361771,0.149851 0.310661,0.238378 0.238377,0.31066 0.149851,0.361771 0.05111,0.388229 -0.05111,0.388228 -0.149851,0.361772 -0.238377,0.31066 -0.310661,0.238378 -0.361771,0.149851 -0.388229,0.05111 -0.388228,-0.05111 -0.361772,-0.149851 -0.31066,-0.238378 -0.238378,-0.31066 -0.14985,-0.361772 -0.05111,-0.388228 0.05111,-0.388229 0.14985,-0.361771 0.238378,-0.31066 0.31066,-0.238378 0.361772,-0.149851 0.388228,-0.05111 m -1.299038,49.25 -0.14985,-0.361772 -0.05111,-0.388228 0.05111,-0.388229 0.14985,-0.361771 0.238378,-0.31066 0.31066,-0.238378 0.361772,-0.149851 0.388228,-0.05111 0.388229,0.05111 0.361771,0.149851 0.310661,0.238378 0.238377,0.31066 0.149851,0.361771 0.05111,0.388229 -0.05111,0.388228 -0.149851,0.361772 -0.238377,0.31066 -0.310661,0.238378 -0.361771,0.149851 -0.388229,0.05111 -0.388228,-0.05111 -0.361772,-0.149851 -0.31066,-0.238378 -0.238378,-0.31066 m 1.299038,35.749996 0.388229,0.0511 0.361771,0.14985 0.310661,0.23837 0.238377,0.31066 0.149851,0.36178 0.05111,0.38822 -0.05111,0.38823 -0.149851,0.36177 -0.238377,0.31066 -0.310661,0.23838 -0.361771,0.14985 -0.388229,0.0511 -0.388228,-0.0511 -0.361772,-0.14985 -0.31066,-0.23838 -0.238378,-0.31066 -0.14985,-0.36177 -0.05111,-0.38823 0.05111,-0.38822 0.14985,-0.36178 0.238378,-0.31066 0.31066,-0.23837 0.361772,-0.14985 0.388228,-0.0511 m 1.060661,47.43934 0.238377,0.31066 0.149851,0.36178 0.05111,0.38822 -0.05111,0.38823 -0.149851,0.36177 -0.238377,0.31066 -0.310661,0.23838 -0.361771,0.14985 -0.388229,0.0511 -0.388228,-0.0511 -0.361772,-0.14985 -0.31066,-0.23838 -0.238378,-0.31066 -0.14985,-0.36177 -0.05111,-0.38823 0.05111,-0.38822 0.14985,-0.36178 0.238378,-0.31066 0.31066,-0.23837 0.361772,-0.14985 0.388228,-0.0511 0.388229,0.0511 0.361771,0.14985 0.310661,0.23837 m 44.49045,1.44889 -0.0511,-0.38823 0.0511,-0.38822 0.14985,-0.36178 0.23838,-0.31066 0.31066,-0.23837 0.36177,-0.14985 0.38823,-0.0511 0.38822,0.0511 0.36178,0.14985 0.31066,0.23837 0.23837,0.31066 0.14985,0.36178 0.0511,0.38822 -0.0511,0.38823 -0.14985,0.36177 -0.23837,0.31066 -0.31066,0.23838 -0.36178,0.14985 -0.38822,0.0511 -0.38823,-0.0511 -0.36177,-0.14985 -0.31066,-0.23838 -0.23838,-0.31066 -0.14985,-0.36177 m -58.551111,16.61177 -3,0 0,-15 3,0 0,15 m 65.000001,-3 0,3 -15,0 0,-3 15,0 m 85,3 -15,0 0,-3 15,0 0,3 m -145.000001,0 0,-3 15,0 0,3 -15,0 m 190.000001,-3 0,3 -15,0 0,-3 15,0 m -60,-159.999996 0,-3 15,0 0,3 -15,0 m -70,-3 0,3 -15,0 0,-3 15,0 m 115,3 0,-3 15,0 0,3 -15,0 m -175.000001,0 0,-3 15,0 0,3 -15,0 m 158.500001,-1.5 0.0511,-0.388229 0.14985,-0.361771 0.23838,-0.31066 0.31066,-0.238378 0.36177,-0.149851 0.38823,-0.05111 0.38822,0.05111 0.36178,0.149851 0.31066,0.238378 0.23837,0.31066 0.14985,0.361771 0.0511,0.388229 -0.0511,0.388228 -0.14985,0.361772 -0.23837,0.31066 -0.31066,0.238378 -0.36178,0.149851 -0.38822,0.05111 -0.38823,-0.05111 -0.36177,-0.149851 -0.31066,-0.238378 -0.23838,-0.31066 -0.14985,-0.361772 -0.0511,-0.388228 m -130.000001,0 0.05111,-0.388229 0.14985,-0.361771 0.238378,-0.31066 0.31066,-0.238378 0.361772,-0.149851 0.388228,-0.05111 0.388229,0.05111 0.361771,0.149851 0.310661,0.238378 0.238377,0.31066 0.149851,0.361771 0.05111,0.388229 -0.05111,0.388228 -0.149851,0.361772 -0.238377,0.31066 -0.310661,0.238378 -0.361771,0.149851 -0.388229,0.05111 -0.388228,-0.05111 -0.361772,-0.149851 -0.31066,-0.238378 -0.238378,-0.31066 -0.14985,-0.361772 -0.05111,-0.388228 m 3,162.999996 -0.05111,0.38823 -0.149851,0.36177 -0.238377,0.31066 -0.310661,0.23838 -0.361771,0.14985 -0.388229,0.0511 -0.388228,-0.0511 -0.361772,-0.14985 -0.31066,-0.23838 -0.238378,-0.31066 -0.14985,-0.36177 -0.05111,-0.38823 0.05111,-0.38822 0.14985,-0.36178 0.238378,-0.31066 0.31066,-0.23837 0.361772,-0.14985 0.388228,-0.0511 0.388229,0.0511 0.361771,0.14985 0.310661,0.23837 0.238377,0.31066 0.149851,0.36178 0.05111,0.38822 m 130.000001,0 -0.0511,0.38823 -0.14985,0.36177 -0.23837,0.31066 -0.31066,0.23838 -0.36178,0.14985 -0.38822,0.0511 -0.38823,-0.0511 -0.36177,-0.14985 -0.31066,-0.23838 -0.23838,-0.31066 -0.14985,-0.36177 -0.0511,-0.38823 0.0511,-0.38822 0.14985,-0.36178 0.23838,-0.31066 0.31066,-0.23837 0.36177,-0.14985 0.38823,-0.0511 0.38822,0.0511 0.36178,0.14985 0.31066,0.23837 0.23837,0.31066 0.14985,0.36178 0.0511,0.38822 m 33.5,-164.499996 3,0 0,15 -3,0 0,-15 m 0,150.999996 3,0 0,15 -3,0 0,-15 m 0,-48 3,0 0,15 -3,0 0,-15 m 3,-54.999996 0,15 -3,0 0,-15 3,0 m -1.5,84.999996 0.38822,0.0511 0.36178,0.14985 0.31066,0.23837 0.23837,0.31066 0.14985,0.36178 0.0511,0.38822 -0.0511,0.38823 -0.14985,0.36177 -0.23837,0.31066 -0.31066,0.23838 -0.36178,0.14985 -0.38822,0.0511 -0.38823,-0.0511 -0.36177,-0.14985 -0.31066,-0.23838 -0.23838,-0.31066 -0.14985,-0.36177 -0.0511,-0.38823 0.0511,-0.38822 0.14985,-0.36178 0.23838,-0.31066 0.31066,-0.23837 0.36177,-0.14985 0.38823,-0.0511 m 0,-102.999996 0.38822,0.05111 0.36178,0.149851 0.31066,0.238378 0.23837,0.31066 0.14985,0.361771 0.0511,0.388229 -0.0511,0.388228 -0.14985,0.361772 -0.23837,0.31066 -0.31066,0.238378 -0.36178,0.149851 -0.38822,0.05111 -0.38823,-0.05111 -0.36177,-0.149851 -0.31066,-0.238378 -0.23838,-0.31066 -0.14985,-0.361772 -0.0511,-0.388228 0.0511,-0.388229 0.14985,-0.361771 0.23838,-0.31066 0.31066,-0.238378 0.36177,-0.149851 0.38823,-0.05111 m -201.500001,33 -3,0 0,-15 3,0 0,15 m -3,-48 0,-15 3,0 0,15 -3,0 m 0,87.999996 3,0 0,15 -3,0 0,-15 m 1.5,33 -0.388228,-0.0511 -0.361772,-0.14985 -0.31066,-0.23838 -0.238378,-0.31066 -0.14985,-0.36177 -0.05111,-0.38823 0.05111,-0.38822 0.14985,-0.36178 0.238378,-0.31066 0.31066,-0.23837 0.361772,-0.14985 0.388228,-0.0511 0.388229,0.0511 0.361771,0.14985 0.310661,0.23837 0.238377,0.31066 0.149851,0.36178 0.05111,0.38822 -0.05111,0.38823 -0.149851,0.36177 -0.238377,0.31066 -0.310661,0.23838 -0.361771,0.14985 -0.388229,0.0511 m -0.75,-103.200958 -0.31066,-0.238378 -0.238378,-0.31066 -0.14985,-0.361772 -0.05111,-0.388228 0.05111,-0.388229 0.14985,-0.361771 0.238378,-0.31066 0.31066,-0.238378 0.361772,-0.149851 0.388228,-0.05111 0.388229,0.05111 0.361771,0.149851 0.310661,0.238378 0.238377,0.31066 0.149851,0.361771 0.05111,0.388229 -0.05111,0.388228 -0.149851,0.361772 -0.238377,0.31066 -0.310661,0.238378 -0.361771,0.149851 -0.388229,0.05111 -0.388228,-0.05111 -0.361772,-0.149851 m 84.250001,-21.799038 3,0 0,15 -3,0 0,-15 m 0,35 3,0 0,20 -3,0 0,-20 m 3,79.999996 -3,0 0,-20 3,0 0,20 m 0,20 0,15 -3,0 0,-15 3,0 m 93.075,-98.780862 -0.3256,0.134866 -0.3494,0.046 -0.34941,-0.046 -0.32559,-0.134866 -0.2796,-0.21454 -0.21454,-0.279594 -0.13486,-0.325594 -0.046,-0.349406 0.046,-0.349406 0.13486,-0.325594 0.21454,-0.279594 0.2796,-0.214541 0.32559,-0.134865 0.34941,-0.046 0.3494,0.046 0.3256,0.134865 0.27959,0.214541 0.21454,0.279594 0.13487,0.325594 0.046,0.349406 -0.046,0.349406 -0.13487,0.325594 -0.21454,0.279594 -0.27959,0.21454 m -76.979,-0.819728 -0.046,-0.349406 0.046,-0.349406 0.13486,-0.325594 0.21454,-0.279594 0.2796,-0.214541 0.32559,-0.134865 0.34941,-0.046 0.3494,0.046 0.3256,0.134865 0.27959,0.214541 0.21454,0.279594 0.13487,0.325594 0.046,0.349406 -0.046,0.349406 -0.13487,0.325594 -0.21454,0.279594 -0.27959,0.21454 -0.3256,0.134866 -0.3494,0.046 -0.34941,-0.046 -0.32559,-0.134866 -0.2796,-0.21454 -0.21454,-0.279594 -0.13486,-0.325594 m 2.47313,-30.674406 -0.21454,0.279594 -0.27959,0.21454 -0.3256,0.134866 -0.3494,0.046 -0.34941,-0.046 -0.32559,-0.134866 -0.2796,-0.21454 -0.21454,-0.279594 -0.13486,-0.325594 -0.046,-0.349406 0.046,-0.349406 0.13486,-0.325594 0.21454,-0.279594 0.2796,-0.214541 0.32559,-0.134865 0.34941,-0.046 0.3494,0.046 0.3256,0.134865 0.27959,0.214541 0.21454,0.279594 0.13487,0.325594 0.046,0.349406 -0.046,0.349406 -0.13487,0.325594 m 72.66173,0 -0.13486,-0.325594 -0.046,-0.349406 0.046,-0.349406 0.13486,-0.325594 0.21454,-0.279594 0.2796,-0.214541 0.32559,-0.134865 0.34941,-0.046 0.3494,0.046 0.3256,0.134865 0.27959,0.214541 0.21454,0.279594 0.13487,0.325594 0.046,0.349406 -0.046,0.349406 -0.13487,0.325594 -0.21454,0.279594 -0.27959,0.21454 -0.3256,0.134866 -0.3494,0.046 -0.34941,-0.046 -0.32559,-0.134866 -0.2796,-0.21454 -0.21454,-0.279594 m -0.23086,2.775 0,24.1 -73.6,0 0,-24.1 73.6,0 m -91,77.499996 0,-14.999996 15,0 0,14.999996 -15,0"
     inkscape:connector-curvature="0" />
  <path
     id="face5-cut"
     style="fill:none;stroke:#000000;stroke-width:0.35277778;stroke-linecap:round;stroke-linejoin:round;stroke-miterlimit:4;stroke-dasharray:none;stroke-opacity:1"
     d="m 67.802402,145.70215 0,5 1,1 16,0 3,0 1,-1 0,-5 -3.58835,-2.94174 -1.41165,-7.05826 0,-13 -11,0 0,13 -1.41165,7.05826 -3.58835,2.94174 m 17.38823,3.94889 -0.38823,0.0511 -0.38823,-0.0511 -0.36177,-0.14985 -0.31066,-0.23838 -0.23838,-0.31066 -0.14985,-0.36177 -0.0511,-0.38823 0.0511,-0.38823 0.14985,-0.36177 0.23838,-0.31066 0.31066,-0.23838 0.36177,-0.14985 0.38823,-0.0511 0.38823,0.0511 0.36177,0.14985 0.31066,0.23838 0.23838,0.31066 0.14985,0.36177 0.0511,0.38823 -0.0511,0.38823 -0.14985,0.36177 -0.23838,0.31066 -0.31066,0.23838 -0.36177,0.14985 m -12.08919,-0.69889 -0.23838,0.31066 -0.31066,0.23838 -0.36177,0.14985 -0.38823,0.0511 -0.38823,-0.0511 -0.36177,-0.14985 -0.31066,-0.23838 -0.23838,-0.31066 -0.14985,-0.36177 -0.0511,-0.38823 0.0511,-0.38823 0.14985,-0.36177 0.23838,-0.31066 0.31066,-0.23838 0.36177,-0.14985 0.38823,-0.0511 0.38823,0.0511 0.36177,0.14985 0.31066,0.23838 0.23838,0.31066 0.14985,0.36177 0.0511,0.38823 -0.0511,0.38823 -0.14985,0.36177 m 5.20096,-24.75 0.38823,0.0511 0.36177,0.14985 0.31066,0.23838 0.23838,0.31066 0.14985,0.36177 0.0511,0.38823 -0.0511,0.38823 -0.14985,0.36177 -0.23838,0.31066 -0.31066,0.23838 -0.36177,0.14985 -0.38823,0.0511 -0.38823,-0.0511 -0.36177,-0.14985 -0.31066,-0.23838 -0.23838,-0.31066 -0.14985,-0.36177 -0.0511,-0.38823 0.0511,-0.38823 0.14985,-0.36177 0.23838,-0.31066 0.31066,-0.23838 0.36177,-0.14985 0.38823,-0.0511 m -1.25,13.66506 -0.25888,-0.19865 -0.25888,-0.19865 -0.3973,-0.51776 -0.24975,-0.60296 -0.0852,-0.64704 0.0852,-0.64705 0.24975,-0.60295 0.3973,-0.51777 0.51776,-0.3973 0.60295,-0.24975 0.64705,-0.0852 0.64705,0.0852 0.60295,0.24975 0.51777,0.3973 0.3973,0.51777 0.24975,0.60295 0.0852,0.64705 -0.0852,0.64704 -0.24975,0.60296 -0.3973,0.51776 -0.25888,0.19865 -0.25889,0.19865 -0.60295,0.24975 -0.64705,0.0852 -0.64705,-0.0852 -0.60295,-0.24975 m -1.475,2.83494 5.45,0 0,2.45 -5.45,0 0,-2.45"
     inkscape:connector-curvature="0" />
  <path
     id="face6-cut"
     style="fill:none;stroke:#000000;stroke-width:0.35277778;stroke-linecap:round;stroke-linejoin:round;stroke-miterlimit:4;stroke-dasharray:none;stroke-opacity:1"
     d="m 5.1763889,323.61109 0,14.24741 1.9999996,0 0,-1.3 2,0 0,1.3 2.9999995,0 0,3 -2.9999995,0 0,1.3 -2,0 0,-1.3 -1.9999996,0 0,6 200.0000011,0 0,-6 -2,0 0,1.3 -2,0 0,-1.3 -3,0 0,-3 3,0 0,-1.3 2,0 0,1.3 2,0 0,-14.24741 3,0 0,-12 -3,0 0,-19.6 3,0 0,-9 -3,0 0,-15.15259 -5,0 0,-3 -15,0 0,3 -13.5,0 0,2 1.3,0 0,2 -1.3,0 0,3 -3,0 0,-3 -1.3,0 0,-2 1.3,0 0,-2 -13.5,0 0,-3 -15,0 0,3 -70.000002,0 0,-3 -15,0 0,3 -13.5,0 0,2 1.3,0 0,2 -1.3,0 0,3 -3,0 0,-3 -1.3,0 0,-2 1.3,0 0,-2 -13.5,0 0,-3 -14.999999,0 0,3 -5.0000001,0 0,15.15259 -3,0 0,9 3,0 0,19.6 -3,0 0,12 3,0 m 183.7000011,5.29 0.39082,0.0514 0.36418,0.15085 0.31273,0.23996 0.23997,0.31274 0.15085,0.36418 0.0515,0.39082 -0.0515,0.39081 -0.15085,0.36419 -0.23997,0.31273 -0.31273,0.23996 -0.36418,0.15085 -0.39082,0.0515 -0.39082,-0.0515 -0.36418,-0.15085 -0.31273,-0.23996 -0.23997,-0.31273 -0.15085,-0.36419 -0.0515,-0.39081 0.0515,-0.39082 0.15085,-0.36418 0.23997,-0.31274 0.31273,-0.23996 0.36418,-0.15085 0.39082,-0.0514 m -48.73803,-11.65092 -0.31401,0.23828 -0.36499,0.14889 -0.39109,0.0493 -0.39054,-0.0536 -0.36336,-0.1528 -0.31144,-0.24165 -0.23828,-0.31402 -0.14889,-0.36499 -0.0494,-0.39109 0.0536,-0.39053 0.1528,-0.36337 0.24165,-0.31143 0.31402,-0.23828 0.36499,-0.14889 0.39108,-0.0494 0.39054,0.0536 0.36336,0.15281 0.31144,0.24165 0.23828,0.31401 0.14889,0.36499 0.0494,0.39109 -0.0536,0.39053 -0.15281,0.36337 -0.24165,0.31144 m 49.72885,-36.39763 0.36418,0.15085 0.31273,0.23996 0.23997,0.31274 0.15085,0.36418 0.0514,0.39082 -0.0514,0.39081 -0.15085,0.36419 -0.23997,0.31273 -0.31273,0.23996 -0.36418,0.15085 -0.39082,0.0515 -0.39082,-0.0515 -0.36418,-0.15085 -0.31273,-0.23996 -0.23997,-0.31273 -0.15085,-0.36419 -0.0514,-0.39081 0.0514,-0.39082 0.15085,-0.36418 0.23997,-0.31274 0.31273,-0.23996 0.36418,-0.15085 0.39082,-0.0515 0.39082,0.0515 m -50.1,6 0.36418,0.15085 0.31273,0.23996 0.23997,0.31274 0.15085,0.36418 0.0515,0.39082 -0.0515,0.39081 -0.15085,0.36419 -0.23997,0.31273 -0.31273,0.23996 -0.36418,0.15085 -0.39082,0.0515 -0.39082,-0.0515 -0.36418,-0.15085 -0.31273,-0.23996 -0.23997,-0.31273 -0.15085,-0.36419 -0.0515,-0.39081 0.0515,-0.39082 0.15085,-0.36418 0.23997,-0.31274 0.31273,-0.23996 0.36418,-0.15085 0.39082,-0.0515 0.39082,0.0515 m -49.590822,-13.99404 0,10 -3,0 0,-10 3,0 m -0.0511,17.61177 0.0511,0.38823 -0.0511,0.38823 -0.14985,0.36177 -0.23838,0.31066 -0.31066,0.23838 -0.36177,0.14985 -0.38823,0.0511 -0.38823,-0.0511 -0.36177,-0.14985 -0.31066,-0.23838 -0.23838,-0.31066 -0.14985,-0.36177 -0.0511,-0.38823 0.0511,-0.38823 0.14985,-0.36177 0.23838,-0.31066 0.31066,-0.23838 0.36177,-0.14985 0.38823,-0.0511 0.38823,0.0511 0.36177,0.14985 0.31066,0.23838 0.23838,0.31066 0.14985,0.36177 m -59.16218,36.04697 -0.61334,-4.65874 0.61334,-4.65874 1.7982,-4.34126 2.86054,-3.72792 3.72792,-2.86054 4.34126,-1.7982 4.65874,-0.61334 4.65874,0.61334 4.34126,1.7982 3.72792,2.86054 2.86054,3.72792 1.79821,4.34126 0.61333,4.65874 -0.61333,4.65874 -1.79821,4.34126 -2.86054,3.72792 -3.72792,2.86054 -4.34126,1.79821 -4.65874,0.61333 -4.65874,-0.61333 -4.34126,-1.79821 -3.72792,-2.86054 -2.86054,-3.72792 -1.7982,-4.34126 m 32.38666,-18.92669 -0.41421,-0.31784 -0.31784,-0.41421 -0.1998,-0.48236 -0.0682,-0.51764 0.0682,-0.51764 0.1998,-0.48236 0.31784,-0.41421 0.41421,-0.31784 0.48236,-0.1998 0.51764,-0.0682 0.51764,0.0682 0.48236,0.1998 0.41421,0.31784 0.31784,0.41421 0.1998,0.48236 0.0682,0.51764 -0.0682,0.51764 -0.1998,0.48236 -0.31784,0.41421 -0.41421,0.31784 -0.48236,0.1998 -0.51764,0.0682 -0.51764,-0.0682 -0.48236,-0.1998 m 0.48236,28.3361 0.51764,-0.0682 0.51764,0.0682 0.48236,0.1998 0.41421,0.31784 0.31784,0.41421 0.1998,0.48236 0.0682,0.51764 -0.0682,0.51764 -0.1998,0.48236 -0.31784,0.41421 -0.41421,0.31784 -0.48236,0.1998 -0.51764,0.0682 -0.51764,-0.0682 -0.48236,-0.1998 -0.41421,-0.31784 -0.31784,-0.41421 -0.1998,-0.48236 -0.0682,-0.51764 0.0682,-0.51764 0.1998,-0.48236 0.31784,-0.41421 0.41421,-0.31784 0.48236,-0.1998 m -32,0 0.51764,-0.0682 0.51764,0.0682 0.48236,0.1998 0.41421,0.31784 0.31784,0.41421 0.1998,0.48236 0.0682,0.51764 -0.0682,0.51764 -0.1998,0.48236 -0.31784,0.41421 -0.41421,0.31784 -0.48236,0.1998 -0.51764,0.0682 -0.51764,-0.0682 -0.48236,-0.1998 -0.41421,-0.31784 -0.31784,-0.41421 -0.1998,-0.48236 -0.0682,-0.51764 0.0682,-0.51764 0.1998,-0.48236 0.31784,-0.41421 0.41421,-0.31784 0.48236,-0.1998 m -0.89657,-31.48236 0.41421,-0.31784 0.48236,-0.1998 0.51764,-0.0682 0.51764,0.0682 0.48236,0.1998 0.41421,0.31784 0.31784,0.41421 0.1998,0.48236 0.0682,0.51764 -0.0682,0.51764 -0.1998,0.48236 -0.31784,0.41421 -0.41421,0.31784 -0.48236,0.1998 -0.51764,0.0682 -0.51764,-0.0682 -0.48236,-0.1998 -0.41421,-0.31784 -0.31784,-0.41421 -0.1998,-0.48236 -0.0682,-0.51764 0.0682,-0.51764 0.1998,-0.48236 0.31784,-0.41421"
     inkscape:connector-curvature="0" />
  <path
     id="face7-cut"
     style="fill:none;stroke:#000000;stroke-width:0.35277778;stroke-linecap:round;stroke-linejoin:round;stroke-miterlimit:4;stroke-dasharray:none;stroke-opacity:1"
     d="m 242.56669,321.44588 0,10 16,11 20,0 16,-11 0,-10 -16,-8 -20,0 -16,8 m 4.5,5 -0.0511,0.38823 -0.14985,0.36177 -0.23838,0.31066 -0.31066,0.23838 -0.36177,0.14985 -0.38823,0.0511 -0.38823,-0.0511 -0.36177,-0.14985 -0.31066,-0.23838 -0.23838,-0.31066 -0.14985,-0.36177 -0.0511,-0.38823 0.0511,-0.38823 0.14985,-0.36177 0.23838,-0.31066 0.31066,-0.23838 0.36177,-0.14985 0.38823,-0.0511 0.38823,0.0511 0.36177,0.14985 0.31066,0.23838 0.23838,0.31066 0.14985,0.36177 0.0511,0.38823 m 15,11 0.38823,0.0511 0.36177,0.14985 0.31066,0.23838 0.23838,0.31066 0.14985,0.36177 0.0511,0.38823 -0.0511,0.38823 -0.14985,0.36177 -0.23838,0.31066 -0.31066,0.23838 -0.36177,0.14985 -0.38823,0.0511 -0.38823,-0.0511 -0.36177,-0.14985 -0.31066,-0.23838 -0.23838,-0.31066 -0.14985,-0.36177 -0.0511,-0.38823 0.0511,-0.38823 0.14985,-0.36177 0.23838,-0.31066 0.31066,-0.23838 0.36177,-0.14985 0.38823,-0.0511 m 13,0 0.38823,0.0511 0.36177,0.14985 0.31066,0.23838 0.23838,0.31066 0.14985,0.36177 0.0511,0.38823 -0.0511,0.38823 -0.14985,0.36177 -0.23838,0.31066 -0.31066,0.23838 -0.36177,0.14985 -0.38823,0.0511 -0.38823,-0.0511 -0.36177,-0.14985 -0.31066,-0.23838 -0.23838,-0.31066 -0.14985,-0.36177 -0.0511,-0.38823 0.0511,-0.38823 0.14985,-0.36177 0.23838,-0.31066 0.31066,-0.23838 0.36177,-0.14985 0.38823,-0.0511 m -7.25,-22.29904 0.36177,-0.14985 0.38823,-0.0511 0.38823,0.0511 0.36177,0.14985 0.31066,0.23838 0.23838,0.31066 0.14985,0.36177 0.0511,0.38823 -0.0511,0.38823 -0.14985,0.36177 -0.23838,0.31066 -0.31066,0.23838 -0.36177,0.14985 -0.38823,0.0511 -0.38823,-0.0511 -0.36177,-0.14985 -0.31066,-0.23838 -0.23838,-0.31066 -0.14985,-0.36177 -0.0511,-0.38823 0.0511,-0.38823 0.14985,-0.36177 0.23838,-0.31066 0.31066,-0.23838 m 3.16482,10.65199 0.0852,0.64705 -0.0852,0.64705 -0.24976,0.60295 -0.39729,0.51777 -0.51777,0.39729 -0.60295,0.24976 -0.64705,0.0852 -0.64705,-0.0852 -0.60295,-0.24976 -0.51777,-0.39729 -0.39729,-0.51777 -0.24975,-0.60295 -0.0852,-0.64705 0.0852,-0.64705 0.24975,-0.60295 0.39729,-0.51777 0.51777,-0.39729 0.60295,-0.24975 0.64705,-0.0852 0.64705,0.0852 0.60295,0.24975 0.51777,0.39729 0.39729,0.51777 0.24976,0.60295 m 17.58518,-4.35295 0,10 -10,0 0,-10 10,0 m -30,10 -10,0 0,-10 10,0 0,10 m 31.55111,-4.61177 -0.0511,-0.38823 0.0511,-0.38823 0.14985,-0.36177 0.23838,-0.31066 0.31066,-0.23838 0.36177,-0.14985 0.38823,-0.0511 0.38823,0.0511 0.36177,0.14985 0.31066,0.23838 0.23838,0.31066 0.14985,0.36177 0.0511,0.38823 -0.0511,0.38823 -0.14985,0.36177 -0.23838,0.31066 -0.31066,0.23838 -0.36177,0.14985 -0.38823,0.0511 -0.38823,-0.0511 -0.36177,-0.14985 -0.31066,-0.23838 -0.23838,-0.31066 -0.14985,-0.36177"
     inkscape:connector-curvature="0" />
  <path
     id="face8-cut"
     style="fill:none;stroke:#000000;stroke-width:0.35277778;stroke-linecap:round;stroke-linejoin:round;stroke-miterlimit:4;stroke-dasharray:none;stroke-opacity:1"
     d="m 182.98873,239.67309 0,14.24741 2,0 0,-1.3 2,0 0,1.3 3,0 0,3 -3,0 0,1.3 -2,0 0,-1.3 -2,0 0,6 200,0 0,-6 -2,0 0,1.3 -2,0 0,-1.3 -3,0 0,-3 3,0 0,-1.3 2,0 0,1.3 2,0 0,-14.24741 3,0 0,-12 -3,0 0,-19.6 3,0 0,-9 -3,0 0,-15.15259 -5,0 0,-3 -15,0 0,3 -13.5,0 0,2 1.3,0 0,2 -1.3,0 0,3 -3,0 0,-3 -1.3,0 0,-2 1.3,0 0,-2 -13.5,0 0,-3 -15,0 0,3 -70,0 0,-3 -15,0 0,3 -13.5,0 0,2 1.3,0 0,2 -1.3,0 0,3 -3,0 0,-3 -1.3,0 0,-2 1.3,0 0,-2 -13.5,0 0,-3 -15,0 0,3 -5,0 0,15.15259 -3,0 0,9 3,0 0,19.6 -3,0 0,12 3,0 m 85,-50.75259 0,10 -3,0 0,-10 3,0 m -0.0511,17.61177 0.0511,0.38823 -0.0511,0.38823 -0.14985,0.36177 -0.23838,0.31066 -0.31066,0.23838 -0.36177,0.14985 -0.38823,0.0511 -0.38823,-0.0511 -0.36177,-0.14985 -0.31066,-0.23838 -0.23838,-0.31066 -0.14985,-0.36177 -0.0511,-0.38823 0.0511,-0.38823 0.14985,-0.36177 0.23838,-0.31066 0.31066,-0.23838 0.36177,-0.14985 0.38823,-0.0511 0.38823,0.0511 0.36177,0.14985 0.31066,0.23838 0.23838,0.31066 0.14985,0.36177"
     inkscape:connector-curvature="0" />
  <path
     id="face9-cut"
     style="fill:none;stroke:#000000;stroke-width:0.35277778;stroke-linecap:round;stroke-linejoin:round;stroke-miterlimit:4;stroke-dasharray:none;stroke-opacity:1"
     d="m 69.588766,26.718795 0,20 27,0 0,-20 -27,0 m 22.55111,3.38822 -0.0511,-0.38822 0.0511,-0.38823 0.14985,-0.36177 0.23838,-0.31066 0.31066,-0.23838 0.36177,-0.14985 0.38823,-0.0511 0.38822,0.0511 0.36178,0.14985 0.31066,0.23838 0.23837,0.31066 0.14986,0.36177 0.0511,0.38823 -0.0511,0.38822 -0.14986,0.36178 -0.23837,0.31066 -0.31066,0.23837 -0.36178,0.14985 -0.38822,0.0511 -0.38823,-0.0511 -0.36177,-0.14985 -0.31066,-0.23837 -0.23838,-0.31066 -0.14985,-0.36178 m -19.93934,-1.83711 0.38823,-0.0511 0.38822,0.0511 0.36178,0.14985 0.31066,0.23838 0.23837,0.31066 0.14986,0.36177 0.0511,0.38823 -0.0511,0.38822 -0.14986,0.36178 -0.23837,0.31066 -0.31066,0.23837 -0.36178,0.14985 -0.38822,0.0511 -0.38823,-0.0511 -0.36177,-0.14985 -0.31066,-0.23837 -0.23838,-0.31066 -0.14985,-0.36178 -0.0511,-0.38822 0.0511,-0.38823 0.14985,-0.36177 0.23838,-0.31066 0.31066,-0.23838 0.36177,-0.14985 m 1.83712,15.06066 0.0511,0.38823 -0.0511,0.38822 -0.14986,0.36178 -0.23837,0.31066 -0.31066,0.23837 -0.36178,0.14985 -0.38822,0.0511 -0.38823,-0.0511 -0.36177,-0.14985 -0.31066,-0.23837 -0.23838,-0.31066 -0.14985,-0.36178 -0.0511,-0.38822 0.0511,-0.38823 0.14985,-0.36177 0.23838,-0.31066 0.31066,-0.23838 0.36177,-0.14985 0.38823,-0.0511 0.38822,0.0511 0.36178,0.14985 0.31066,0.23838 0.23837,0.31066 0.14986,0.36177 m 18.80111,-0.91081 0.36177,-0.14985 0.38823,-0.0511 0.38822,0.0511 0.36178,0.14985 0.31066,0.23838 0.23837,0.31066 0.14986,0.36177 0.0511,0.38823 -0.0511,0.38822 -0.14986,0.36178 -0.23837,0.31066 -0.31066,0.23837 -0.36178,0.14985 -0.38822,0.0511 -0.38823,-0.0511 -0.36177,-0.14985 -0.31066,-0.23837 -0.23838,-0.31066 -0.14985,-0.36178 -0.0511,-0.38822 0.0511,-0.38823 0.14985,-0.36177 0.23838,-0.31066 0.31066,-0.23838 m -9.87999,-8.98511 0.87999,-0.11585 0.87998,0.11585 0.82002,0.33966 0.70416,0.54032 0.54032,0.70417 0.33966,0.82001 0.11586,0.87999 -0.11586,0.87998 -0.33966,0.82002 -0.54032,0.70416 -0.70416,0.54032 -0.82002,0.33966 -0.87998,0.11586 -0.87999,-0.11586 -0.82001,-0.33966 -0.70417,-0.54032 -0.54032,-0.70416 -0.33966,-0.82002 -0.11585,-0.87998 0.11585,-0.87999 0.33966,-0.82001 0.54032,-0.70417 0.70417,-0.54032 0.82001,-0.33966"
     inkscape:connector-curvature="0" />
  <path
     id="face10-cut"
     style="fill:none;stroke:#000000;stroke-width:0.35277778;stroke-linecap:round;stroke-linejoin:round;stroke-miterlimit:4;stroke-dasharray:none;stroke-opacity:1"
     d="m 325.06434,340.62364 8.5,0 16,-11 0,-10 -16,-8 -20,0 -16,8 0,10 16,11 8.5,0 0,-8.55 -1.125,0 0,-2.45 1.125,0 -0.009,-3.03358 -0.25888,-0.19865 -0.3973,-0.51777 -0.24975,-0.60295 -0.0852,-0.64705 0.0852,-0.64704 0.24975,-0.60296 0.3973,-0.51776 0.51777,-0.3973 0.60295,-0.24975 0.64705,-0.0852 0.64704,0.0852 0.60296,0.24975 0.51776,0.3973 0.3973,0.51776 0.24975,0.60296 0.0852,0.64704 -0.0852,0.64705 -0.24975,0.60295 -0.3973,0.51777 -0.25888,0.19865 -0.009,3.03358 1.125,0 0,2.45 -1.125,0 0,8.55 m -1.5,-27.5 0.38823,0.0511 0.36177,0.14985 0.31066,0.23837 0.23838,0.31066 0.14985,0.36178 0.0511,0.38822 -0.0511,0.38823 -0.14985,0.36177 -0.23838,0.31066 -0.31066,0.23838 -0.36177,0.14985 -0.38823,0.0511 -0.38823,-0.0511 -0.36177,-0.14985 -0.31066,-0.23838 -0.23838,-0.31066 -0.14985,-0.36177 -0.0511,-0.38823 0.0511,-0.38822 0.14985,-0.36178 0.23838,-0.31066 0.31066,-0.23837 0.36177,-0.14985 0.38823,-0.0511 m -5.20096,24.75 -0.23838,0.31066 -0.31066,0.23838 -0.36177,0.14985 -0.38823,0.0511 -0.38823,-0.0511 -0.36177,-0.14985 -0.31066,-0.23838 -0.23838,-0.31066 -0.14985,-0.36177 -0.0511,-0.38823 0.0511,-0.38822 0.14985,-0.36178 0.23838,-0.31066 0.31066,-0.23837 0.36177,-0.14985 0.38823,-0.0511 0.38823,0.0511 0.36177,0.14985 0.31066,0.23837 0.23838,0.31066 0.14985,0.36178 0.0511,0.38822 -0.0511,0.38823 -0.14985,0.36177 m 12.08919,0.69889 -0.38823,0.0511 -0.38823,-0.0511 -0.36177,-0.14985 -0.31066,-0.23838 -0.23838,-0.31066 -0.14985,-0.36177 -0.0511,-0.38823 0.0511,-0.38822 0.14985,-0.36178 0.23838,-0.31066 0.31066,-0.23837 0.36177,-0.14985 0.38823,-0.0511 0.38823,0.0511 0.36177,0.14985 0.31066,0.23837 0.23838,0.31066 0.14985,0.36178 0.0511,0.38822 -0.0511,0.38823 -0.14985,0.36177 -0.23838,0.31066 -0.31066,0.23838 -0.36177,0.14985 m -28.38823,-13.94889 -0.0511,0.38823 -0.14985,0.36177 -0.23838,0.31066 -0.31066,0.23838 -0.36177,0.14985 -0.38823,0.0511 -0.38823,-0.0511 -0.36177,-0.14985 -0.31066,-0.23838 -0.23838,-0.31066 -0.14985,-0.36177 -0.0511,-0.38823 0.0511,-0.38822 0.14985,-0.36178 0.23838,-0.31066 0.31066,-0.23837 0.36177,-0.14985 0.38823,-0.0511 0.38823,0.0511 0.36177,0.14985 0.31066,0.23837 0.23838,0.31066 0.14985,0.36178 0.0511,0.38822"
     inkscape:connector-curvature="0" />
  <path
     id="face11-cut"
     style="fill:none;stroke:#000000;stroke-width:0.35277778;stroke-linecap:round;stroke-linejoin:round;stroke-miterlimit:4;stroke-dasharray:none;stroke-opacity:1"
     d="m 240.83234,311.87804 -27.00001,0 0,20 27.00001,0 0,-20 m -3,18.5 -0.38823,-0.0511 -0.36177,-0.14986 -0.31066,-0.23837 -0.23838,-0.31066 -0.14985,-0.36177 -0.0511,-0.38823 0.0511,-0.38823 0.14985,-0.36177 0.23838,-0.31066 0.31066,-0.23838 0.36177,-0.14985 0.38823,-0.0511 0.38823,0.0511 0.36177,0.14985 0.31066,0.23838 0.23838,0.31066 0.14985,0.36177 0.0511,0.38823 -0.0511,0.38823 -0.14985,0.36177 -0.23838,0.31066 -0.31066,0.23837 -0.36177,0.14986 -0.38823,0.0511 m 0,-14 -0.38823,-0.0511 -0.36177,-0.14986 -0.31066,-0.23837 -0.23838,-0.31066 -0.14985,-0.36177 -0.0511,-0.38823 0.0511,-0.38823 0.14985,-0.36177 0.23838,-0.31066 0.31066,-0.23838 0.36177,-0.14985 0.38823,-0.0511 0.38823,0.0511 0.36177,0.14985 0.31066,0.23838 0.23838,0.31066 0.14985,0.36177 0.0511,0.38823 -0.0511,0.38823 -0.14985,0.36177 -0.23838,0.31066 -0.31066,0.23837 -0.36177,0.14986 -0.38823,0.0511 m -19.70097,13.25 -0.23838,0.31066 -0.31066,0.23837 -0.36177,0.14986 -0.38823,0.0511 -0.38822,-0.0511 -0.36178,-0.14986 -0.31066,-0.23837 -0.23837,-0.31066 -0.14985,-0.36177 -0.0511,-0.38823 0.0511,-0.38823 0.14985,-0.36177 0.23837,-0.31066 0.31066,-0.23838 0.36178,-0.14985 0.38822,-0.0511 0.38823,0.0511 0.36177,0.14985 0.31066,0.23838 0.23838,0.31066 0.14985,0.36177 0.0511,0.38823 -0.0511,0.38823 -0.14985,0.36177 m -0.54904,-13.45097 -0.36177,0.14986 -0.38823,0.0511 -0.38822,-0.0511 -0.36178,-0.14986 -0.31066,-0.23837 -0.23837,-0.31066 -0.14985,-0.36177 -0.0511,-0.38823 0.0511,-0.38823 0.14985,-0.36177 0.23837,-0.31066 0.31066,-0.23838 0.36178,-0.14985 0.38822,-0.0511 0.38823,0.0511 0.36177,0.14985 0.31066,0.23838 0.23838,0.31066 0.14985,0.36177 0.0511,0.38823 -0.0511,0.38823 -0.14985,0.36177 -0.23838,0.31066 -0.31066,0.23837 m 16.25001,9.90097 0,-8.4 -2,0 0,-2.5 3,0 0,13.4 -3,0 0,-2.5 2,0 m -12.50001,-10.9 3,0 0,2.5 -2,0 0,8.4 2,0 0,2.5 -3,0 0,-13.4"
     inkscape:connector-curvature="0" />
  <path
     id="face12-cut"
     style="fill:none;stroke:#000000;stroke-width:0.35277778;stroke-linecap:round;stroke-linejoin:round;stroke-miterlimit:4;stroke-dasharray:none;stroke-opacity:1"
     d="m 86.766646,139.44637 19.999994,0 0,-27 -19.999994,0 0,27 m 3.38823,-22.55111 -0.38823,0.0511 -0.38823,-0.0511 -0.36177,-0.14985 -0.31066,-0.23838 -0.23838,-0.31066 -0.14985,-0.36177 -0.0511,-0.38823 0.0511,-0.38822 0.14985,-0.36178 0.23838,-0.31066 0.31066,-0.23837 0.36177,-0.14985 0.38823,-0.0511 0.38823,0.0511 0.36177,0.14985 0.31066,0.23837 0.23838,0.31066 0.14985,0.36178 0.0511,0.38822 -0.0511,0.38823 -0.14985,0.36177 -0.23838,0.31066 -0.31066,0.23838 -0.36177,0.14985 m -1.83712,19.93934 -0.0511,-0.38823 0.0511,-0.38822 0.14985,-0.36178 0.23838,-0.31066 0.31066,-0.23837 0.36177,-0.14985 0.38823,-0.0511 0.38823,0.0511 0.36177,0.14985 0.31066,0.23837 0.23838,0.31066 0.14985,0.36178 0.0511,0.38822 -0.0511,0.38823 -0.14985,0.36177 -0.23838,0.31066 -0.31066,0.23838 -0.36177,0.14985 -0.38823,0.0511 -0.38823,-0.0511 -0.36177,-0.14985 -0.31066,-0.23838 -0.23838,-0.31066 -0.14985,-0.36177 m 15.060654,-1.83711 0.38823,-0.0511 0.38823,0.0511 0.36177,0.14985 0.31066,0.23837 0.23838,0.31066 0.14985,0.36178 0.0511,0.38822 -0.0511,0.38823 -0.14985,0.36177 -0.23838,0.31066 -0.31066,0.23838 -0.36177,0.14985 -0.38823,0.0511 -0.38823,-0.0511 -0.36177,-0.14985 -0.31066,-0.23838 -0.23838,-0.31066 -0.14985,-0.36177 -0.0511,-0.38823 0.0511,-0.38822 0.14985,-0.36178 0.23838,-0.31066 0.31066,-0.23837 0.36177,-0.14985 m -0.91081,-18.80112 -0.14985,-0.36177 -0.0511,-0.38823 0.0511,-0.38822 0.14985,-0.36178 0.23838,-0.31066 0.31066,-0.23837 0.36177,-0.14985 0.38823,-0.0511 0.38823,0.0511 0.36177,0.14985 0.31066,0.23837 0.23838,0.31066 0.14985,0.36178 0.0511,0.38822 -0.0511,0.38823 -0.14985,0.36177 -0.23838,0.31066 -0.31066,0.23838 -0.36177,0.14985 -0.38823,0.0511 -0.38823,-0.0511 -0.36177,-0.14985 -0.31066,-0.23838 -0.23838,-0.31066 m -8.985104,9.87999 -0.11585,-0.87999 0.11585,-0.87998 0.33966,-0.82002 0.54033,-0.70416 0.70416,-0.54032 0.82001,-0.33966 0.87999,-0.11586 0.879978,0.11586 0.82002,0.33966 0.70416,0.54032 0.54032,0.70416 0.339666,0.82002 0.11585,0.87998 -0.11585,0.87999 -0.339666,0.82001 -0.54032,0.70417 -0.70416,0.54032 -0.82002,0.33966 -0.879978,0.11585 -0.87999,-0.11585 -0.82001,-0.33966 -0.70416,-0.54032 -0.54033,-0.70417 -0.33966,-0.82001"
     inkscape:connector-curvature="0" />
  <path
     id="face13-cut"
     style="fill:none;stroke:#000000;stroke-width:0.35277778;stroke-linecap:round;stroke-linejoin:round;stroke-miterlimit:4;stroke-dasharray:none;stroke-opacity:1"
     d="m 315.92639,4.285203 -19.6,0 0,21.2 -12,0 0,-21.2 -23.24741,0 0,171.999997 79,0 0,-3 3,0 0,-15 -3,0 0,-15 -2,0 0,1.3 -2,0 0,-1.3 -3,0 0,-3 3,0 0,-1.3 2,0 0,1.3 2,0 0,-15 3,0 0,-15 -3,0 0,-39.999997 3,0 0,-15 -3,0 0,-15 -2,0 0,1.3 -2,0 0,-1.3 -3,0 0,-3 3,0 0,-1.3 2,0 0,1.3 2,0 0,-15 3,0 0,-15 -3,0 0,-3 -15.15259,0 0,21.7 -9,0 0,-21.7 m -45.84741,4.5 -0.0511,0.38823 -0.14985,0.36177 -0.23837,0.31066 -0.31066,0.23838 -0.36178,0.14985 -0.38822,0.0511 -0.38823,-0.0511 -0.36177,-0.14985 -0.31066,-0.23838 -0.23838,-0.31066 -0.14985,-0.36177 -0.0511,-0.38823 0.0511,-0.38823 0.14985,-0.36177 0.23838,-0.31066 0.31066,-0.23838 0.36177,-0.14985 0.38823,-0.0511 0.38822,0.0511 0.36178,0.14985 0.31066,0.23838 0.23837,0.31066 0.14985,0.36177 0.0511,0.38823 m 43,93.499997 3,0 0,10 -3,0 0,-10 m 3,26 0,10 -3,0 0,-10 3,0 m -31.75259,42 12,0 0,3 -12,0 0,-3 m 31.6,3 0,-3 9,0 0,3 -9,0 m -45.84741,-1.5 -0.0511,0.38823 -0.14985,0.36177 -0.23837,0.31066 -0.31066,0.23838 -0.36178,0.14985 -0.38822,0.0511 -0.38823,-0.0511 -0.36177,-0.14985 -0.31066,-0.23838 -0.23838,-0.31066 -0.14985,-0.36177 -0.0511,-0.38823 0.0511,-0.38823 0.14985,-0.36177 0.23838,-0.31066 0.31066,-0.23838 0.36177,-0.14985 0.38823,-0.0511 0.38822,0.0511 0.36178,0.14985 0.31066,0.23838 0.23837,0.31066 0.14985,0.36177 0.0511,0.38823 m 24.22733,-48.43175 0.12267,0.93175 -0.12267,0.93175 -0.35964,0.86825 -0.57211,0.74558 -0.74558,0.57211 -0.86826,0.35964 -0.93174,0.12267 -0.93175,-0.12267 -0.86825,-0.35964 -0.74559,-0.57211 -0.57211,-0.74558 -0.35964,-0.86825 -0.12266,-0.93175 0.12266,-0.93175 0.35964,-0.86825 0.57211,-0.74559 0.74559,-0.5721 0.86825,-0.35965 0.93175,-0.12266 0.93174,0.12266 0.86826,0.35965 0.74558,0.5721 0.57211,0.74559 0.35964,0.86825 m 9.22155,-6.45648 0.0511,0.38823 -0.0511,0.38823 -0.14985,0.36177 -0.23837,0.31066 -0.31066,0.23838 -0.36178,0.14985 -0.38822,0.0511 -0.38823,-0.0511 -0.36177,-0.14985 -0.31066,-0.23838 -0.23838,-0.31066 -0.14985,-0.36177 -0.0511,-0.38823 0.0511,-0.38823 0.14985,-0.36177 0.23838,-0.31066 0.31066,-0.23838 0.36177,-0.14985 0.38823,-0.0511 0.38822,0.0511 0.36178,0.14985 0.31066,0.23838 0.23837,0.31066 0.14985,0.36177 m -0.14985,13.63823 0.14985,0.36177 0.0511,0.38823 -0.0511,0.38823 -0.14985,0.36177 -0.23837,0.31066 -0.31066,0.23838 -0.36178,0.14985 -0.38822,0.0511 -0.38823,-0.0511 -0.36177,-0.14985 -0.31066,-0.23838 -0.23838,-0.31066 -0.14985,-0.36177 -0.0511,-0.38823 0.0511,-0.38823 0.14985,-0.36177 0.23838,-0.31066 0.31066,-0.23838 0.36177,-0.14985 0.38823,-0.0511 0.38822,0.0511 0.36178,0.14985 0.31066,0.23838 0.23837,0.31066 m -23.35969,-0.31066 0.31066,-0.23838 0.36177,-0.14985 0.38823,-0.0511 0.38822,0.0511 0.36178,0.14985 0.31066,0.23838 0.23837,0.31066 0.14985,0.36177 0.0511,0.38823 -0.0511,0.38823 -0.14985,0.36177 -0.23837,0.31066 -0.31066,0.23838 -0.36178,0.14985 -0.38822,0.0511 -0.38823,-0.0511 -0.36177,-0.14985 -0.31066,-0.23838 -0.23838,-0.31066 -0.14985,-0.36177 -0.0511,-0.38823 0.0511,-0.38823 0.14985,-0.36177 0.23838,-0.31066 m 2.35969,-13.68934 0.14985,0.36177 0.0511,0.38823 -0.0511,0.38823 -0.14985,0.36177 -0.23837,0.31066 -0.31066,0.23838 -0.36178,0.14985 -0.38822,0.0511 -0.38823,-0.0511 -0.36177,-0.14985 -0.31066,-0.23838 -0.23838,-0.31066 -0.14985,-0.36177 -0.0511,-0.38823 0.0511,-0.38823 0.14985,-0.36177 0.23838,-0.31066 0.31066,-0.23838 0.36177,-0.14985 0.38823,-0.0511 0.38822,0.0511 0.36178,0.14985 0.31066,0.23838 0.23837,0.31066 m 0.14985,-49.638227 0.0511,0.38823 -0.0511,0.38823 -0.14985,0.36177 -0.23837,0.31066 -0.31066,0.23838 -0.36178,0.14985 -0.38822,0.0511 -0.38823,-0.0511 -0.36177,-0.14985 -0.31066,-0.23838 -0.23838,-0.31066 -0.14985,-0.36177 -0.0511,-0.38823 0.0511,-0.38823 0.14985,-0.36177 0.23838,-0.31066 0.31066,-0.23838 0.36177,-0.14985 0.38823,-0.0511 0.38822,0.0511 0.36178,0.14985 0.31066,0.23838 0.23837,0.31066 0.14985,0.36177 m 5.18342,9.18823 -0.35964,-0.86825 -0.12266,-0.93175 0.12266,-0.93175 0.35964,-0.86825 0.57211,-0.74559 0.74559,-0.5721 0.86825,-0.35965 0.93175,-0.12266 0.93174,0.12266 0.86826,0.35965 0.74558,0.5721 0.57211,0.74559 0.35964,0.86825 0.12267,0.93175 -0.12267,0.93175 -0.35964,0.86825 -0.57211,0.74558 -0.74558,0.57211 -0.86826,0.35964 -0.93174,0.12267 -0.93175,-0.12267 -0.86825,-0.35964 -0.74559,-0.57211 -0.57211,-0.74558 m 15.66673,-9.55 0.14985,0.36177 0.0511,0.38823 -0.0511,0.38823 -0.14985,0.36177 -0.23837,0.31066 -0.31066,0.23838 -0.36178,0.14985 -0.38822,0.0511 -0.38823,-0.0511 -0.36177,-0.14985 -0.31066,-0.23838 -0.23838,-0.31066 -0.14985,-0.36177 -0.0511,-0.38823 0.0511,-0.38823 0.14985,-0.36177 0.23838,-0.31066 0.31066,-0.23838 0.36177,-0.14985 0.38823,-0.0511 0.38822,0.0511 0.36178,0.14985 0.31066,0.23838 0.23837,0.31066 m -0.23837,13.68934 0.23837,0.31066 0.14985,0.36177 0.0511,0.38823 -0.0511,0.38823 -0.14985,0.36177 -0.23837,0.31066 -0.31066,0.23838 -0.36178,0.14985 -0.38822,0.0511 -0.38823,-0.0511 -0.36177,-0.14985 -0.31066,-0.23838 -0.23838,-0.31066 -0.14985,-0.36177 -0.0511,-0.38823 0.0511,-0.38823 0.14985,-0.36177 0.23838,-0.31066 0.31066,-0.23838 0.36177,-0.14985 0.38823,-0.0511 0.38822,0.0511 0.36178,0.14985 0.31066,0.23838 m -20.76163,0.31066 0.14985,0.36177 0.0511,0.38823 -0.0511,0.38823 -0.14985,0.36177 -0.23837,0.31066 -0.31066,0.23838 -0.36178,0.14985 -0.38822,0.0511 -0.38823,-0.0511 -0.36177,-0.14985 -0.31066,-0.23838 -0.23838,-0.31066 -0.14985,-0.36177 -0.0511,-0.38823 0.0511,-0.38823 0.14985,-0.36177 0.23838,-0.31066 0.31066,-0.23838 0.36177,-0.14985 0.38823,-0.0511 0.38822,0.0511 0.36178,0.14985 0.31066,0.23838 0.23837,0.31066"
     inkscape:connector-curvature="0" />
  <path
     id="face14-cut"
     style="fill:none;stroke:#000000;stroke-width:0.35277778;stroke-linecap:round;stroke-linejoin:round;stroke-miterlimit:4;stroke-dasharray:none;stroke-opacity:1"
     d="m 344.71855,300.87646 0,3.5 11,16 10,0 8,-16 0,-20 -8,-16 -10,0 -11,16 0,16.5 m 16,-28 -0.38823,-0.0511 -0.36177,-0.14985 -0.31066,-0.23838 -0.23838,-0.31066 -0.14985,-0.36177 -0.0511,-0.38823 0.0511,-0.38823 0.14985,-0.36177 0.23838,-0.31066 0.31066,-0.23837 0.36177,-0.14986 0.38823,-0.0511 0.38823,0.0511 0.36177,0.14986 0.31066,0.23837 0.23838,0.31066 0.14985,0.36177 0.0511,0.38823 -0.0511,0.38823 -0.14985,0.36177 -0.23838,0.31066 -0.31066,0.23838 -0.36177,0.14985 -0.38823,0.0511 m 5,11.5 -10,0 0,-10 10,0 0,10 m -10,20 10,0 0,10 -10,0 0,-10 m -8.94889,-3.11177 -0.0511,-0.38823 0.0511,-0.38823 0.14985,-0.36177 0.23838,-0.31066 0.31066,-0.23837 0.36177,-0.14986 0.38823,-0.0511 0.38823,0.0511 0.36177,0.14986 0.31066,0.23837 0.23838,0.31066 0.14985,0.36177 0.0511,0.38823 -0.0511,0.38823 -0.14985,0.36177 -0.23838,0.31066 -0.31066,0.23838 -0.36177,0.14985 -0.38823,0.0511 -0.38823,-0.0511 -0.36177,-0.14985 -0.31066,-0.23838 -0.23838,-0.31066 -0.14985,-0.36177 m 0.69889,-12.08919 -0.31066,-0.23838 -0.23838,-0.31066 -0.14985,-0.36177 -0.0511,-0.38823 0.0511,-0.38823 0.14985,-0.36177 0.23838,-0.31066 0.31066,-0.23837 0.36177,-0.14986 0.38823,-0.0511 0.38823,0.0511 0.36177,0.14986 0.31066,0.23837 0.23838,0.31066 0.14985,0.36177 0.0511,0.38823 -0.0511,0.38823 -0.14985,0.36177 -0.23838,0.31066 -0.31066,0.23838 -0.36177,0.14985 -0.38823,0.0511 -0.38823,-0.0511 -0.36177,-0.14985 m 24.75,5.20096 -0.0511,0.38823 -0.14985,0.36177 -0.23838,0.31066 -0.31066,0.23838 -0.36177,0.14985 -0.38823,0.0511 -0.38823,-0.0511 -0.36177,-0.14985 -0.31066,-0.23838 -0.23838,-0.31066 -0.14985,-0.36177 -0.0511,-0.38823 0.0511,-0.38823 0.14985,-0.36177 0.23838,-0.31066 0.31066,-0.23837 0.36177,-0.14986 0.38823,-0.0511 0.38823,0.0511 0.36177,0.14986 0.31066,0.23837 0.23838,0.31066 0.14985,0.36177 0.0511,0.38823 m -13.66507,-1.25 0.19865,-0.25888 0.19865,-0.25888 0.51777,-0.3973 0.60295,-0.24975 0.64705,-0.0852 0.64705,0.0852 0.60295,0.24975 0.51776,0.3973 0.3973,0.51776 0.24975,0.60296 0.0852,0.64704 -0.0852,0.64705 -0.24975,0.60295 -0.3973,0.51777 -0.51776,0.3973 -0.60295,0.24975 -0.64705,0.0852 -0.64705,-0.0852 -0.60295,-0.24975 -0.51777,-0.3973 -0.19865,-0.25888 -0.19865,-0.25889 -0.24975,-0.60295 -0.0852,-0.64705 0.0852,-0.64704 0.24975,-0.60296 m -2.83493,-1.475 0,5.45 -2.45,0 0,-5.45 2.45,0"
     inkscape:connector-curvature="0" />
  <path
     id="face15-cut"
     style="fill:none;stroke:#000000;stroke-width:0.35277778;stroke-linecap:round;stroke-linejoin:round;stroke-miterlimit:4;stroke-dasharray:none;stroke-opacity:1"
     d="m 215.22943,279.46881 0,6.5 2,0 0,-1.3 2,0 0,1.3 3,0 0,3 -3,0 0,1.3 -2,0 0,-1.3 -2,0 0,6.5 -3,0 0,10 3,0 0,3.15 115,0 0,-3.15 3,0 0,-10 -3,0 0,-16 3,0 0,-10 -3,0 0,-3.15 -115,0 0,3.15 -3,0 0,10 3,0 m 82.36603,-8 0.0658,0.5 -0.0658,0.5 -0.193,0.46593 -0.307,0.4001 -0.4001,0.30701 -0.46593,0.19299 -0.5,0.0658 -0.5,-0.0658 -0.46592,-0.19299 -0.4001,-0.30701 -0.30701,-0.4001 -0.19299,-0.46593 -0.0658,-0.5 0.0658,-0.5 0.19299,-0.46592 0.30701,-0.4001 0.4001,-0.30701 0.46592,-0.19299 0.5,-0.0658 0.5,0.0658 0.46593,0.19299 0.4001,0.30701 0.307,0.4001 0.193,0.46592 m -34.79788,1.01764 -0.0681,-0.51764 0.0681,-0.51763 0.1998,-0.48237 0.31784,-0.41421 0.41421,-0.31784 0.48236,-0.1998 0.51764,-0.0681 0.51764,0.0681 0.48236,0.1998 0.41421,0.31784 0.31784,0.41421 0.1998,0.48237 0.0682,0.51763 -0.0682,0.51764 -0.1998,0.48236 -0.31784,0.41422 -0.41421,0.31784 -0.48236,0.1998 -0.51764,0.0681 -0.51764,-0.0681 -0.48236,-0.1998 -0.41421,-0.31784 -0.31784,-0.41422 -0.1998,-0.48236 m 34.69798,31.48236 -0.31784,0.41422 -0.41421,0.31784 -0.48237,0.1998 -0.51763,0.0681 -0.51764,-0.0681 -0.48236,-0.1998 -0.41422,-0.31784 -0.31784,-0.41422 -0.1998,-0.48236 -0.0681,-0.51764 0.0681,-0.51763 0.1998,-0.48237 0.31784,-0.41421 0.41422,-0.31784 0.48236,-0.1998 0.51764,-0.0681 0.51763,0.0681 0.48237,0.1998 0.41421,0.31784 0.31784,0.41421 0.1998,0.48237 0.0682,0.51763 -0.0682,0.51764 -0.1998,0.48236 m -30.83428,-1.51763 0.0682,0.51763 -0.0682,0.51764 -0.1998,0.48236 -0.31784,0.41422 -0.41421,0.31784 -0.48236,0.1998 -0.51764,0.0681 -0.51764,-0.0681 -0.48236,-0.1998 -0.41421,-0.31784 -0.31784,-0.41422 -0.1998,-0.48236 -0.0681,-0.51764 0.0681,-0.51763 0.1998,-0.48237 0.31784,-0.41421 0.41421,-0.31784 0.48236,-0.1998 0.51764,-0.0681 0.51764,0.0681 0.48236,0.1998 0.41421,0.31784 0.31784,0.41421 0.1998,0.48237 m 24.6763,-17.95878 0.39185,2.97641 -0.39185,2.97642 -1.14886,2.77358 -1.82756,2.38173 -2.38173,1.82757 -2.77358,1.14885 -2.97642,0.39185 -2.97642,-0.39185 -2.77358,-1.14885 -2.38173,-1.82757 -1.82756,-2.38173 -1.14886,-2.77358 -0.39185,-2.97642 0.39185,-2.97641 1.14886,-2.77359 1.82756,-2.38172 2.38173,-1.82757 2.77358,-1.14885 2.97642,-0.39186 2.97642,0.39186 2.77358,1.14885 2.38173,1.82757 1.82756,2.38172 1.14886,2.77359"
     inkscape:connector-curvature="0" />
  <path
     id="face16-cut"
     style="fill:none;stroke:#000000;stroke-width:0.35277778;stroke-linecap:round;stroke-linejoin:round;stroke-miterlimit:4;stroke-dasharray:none;stroke-opacity:1"
     d="m 351.86929,156.99175 -3,0 0,3 0,17 27,0 0,-20 -24,0 m 5,16.7 0,-13.4 12.5,0 0,13.4 -12.5,0 m 16,1.8 -0.38823,-0.0511 -0.36177,-0.14985 -0.31066,-0.23838 -0.23837,-0.31066 -0.14986,-0.36177 -0.0511,-0.38823 0.0511,-0.38823 0.14986,-0.36177 0.23837,-0.31066 0.31066,-0.23838 0.36177,-0.14985 0.38823,-0.0511 0.38823,0.0511 0.36177,0.14985 0.31066,0.23838 0.23838,0.31066 0.14985,0.36177 0.0511,0.38823 -0.0511,0.38823 -0.14985,0.36177 -0.23838,0.31066 -0.31066,0.23838 -0.36177,0.14985 -0.38823,0.0511 m 1.44889,-15.88823 0.0511,0.38823 -0.0511,0.38823 -0.14985,0.36177 -0.23838,0.31066 -0.31066,0.23838 -0.36177,0.14985 -0.38823,0.0511 -0.38823,-0.0511 -0.36177,-0.14985 -0.31066,-0.23838 -0.23837,-0.31066 -0.14986,-0.36177 -0.0511,-0.38823 0.0511,-0.38823 0.14986,-0.36177 0.23837,-0.31066 0.31066,-0.23838 0.36177,-0.14985 0.38823,-0.0511 0.38823,0.0511 0.36177,0.14985 0.31066,0.23838 0.23838,0.31066 0.14985,0.36177 m -23.89778,14.77646 -0.0511,-0.38823 0.0511,-0.38823 0.14986,-0.36177 0.23837,-0.31066 0.31066,-0.23838 0.36177,-0.14985 0.38823,-0.0511 0.38823,0.0511 0.36177,0.14985 0.31066,0.23838 0.23838,0.31066 0.14985,0.36177 0.0511,0.38823 -0.0511,0.38823 -0.14985,0.36177 -0.23838,0.31066 -0.31066,0.23838 -0.36177,0.14985 -0.38823,0.0511 -0.38823,-0.0511 -0.36177,-0.14985 -0.31066,-0.23838 -0.23837,-0.31066 -0.14986,-0.36177 m 1.44889,-15.88823 0.38823,0.0511 0.36177,0.14985 0.31066,0.23838 0.23838,0.31066 0.14985,0.36177 0.0511,0.38823 -0.0511,0.38823 -0.14985,0.36177 -0.23838,0.31066 -0.31066,0.23838 -0.36177,0.14985 -0.38823,0.0511 -0.38823,-0.0511 -0.36177,-0.14985 -0.31066,-0.23838 -0.23837,-0.31066 -0.14986,-0.36177 -0.0511,-0.38823 0.0511,-0.38823 0.14986,-0.36177 0.23837,-0.31066 0.31066,-0.23838 0.36177,-0.14985 0.38823,-0.0511"
     inkscape:connector-curvature="0" />
  <path
     id="face0-interior"
     style="fill:none;stroke:#000000;stroke-width:0.35277778;stroke-linecap:round;stroke-linejoin:round;stroke-miterlimit:4;stroke-dasharray:none;stroke-opacity:1"
     d="m 9.0613445,5 m 0,84 m -2,8 m 0,36 m 2,8 m 0,24 m 5.5366255,0 m -0.03663,-2 m -1.3,0 m 0,-2 m 1.3,0 m 0,-3 m 3,0 m 0,3 m 1.3,0 m 0,2 m -1.3,0 m 0,2 m 6.5,0 m 0,3 m 10,0 m 0,-3 m 5,0 m 0,-2 m 3,0 m 0,-15 m -3,0 m 0,-20 m 3,0 m 0,-20 m -3,0 m 0,-40 m 3,0 m 0,-20 m -3,0 m 0,-20 m 3,0 m 0,-15 m -3,0 m 0,-8 m -5,0 m 0,-3 m -10,0 m 0,3 m -6.5,0 m 0,2 m 1.3,0 m 0,2 m -1.3,0 m 0,3 m -3,0 m 0,-3 m -1.3,0 m 0,-2 m 1.3,0 m 0,-2 m 0.5,128 m -3,0 m 0,-10 m 3,0 m -3,-26 m 3,0 m 0,10 m -3,0 m 1.5,9.5 m -0.388229,-0.0511 m -0.361771,-0.14986 m -0.31066,-0.23838 M 12.262302,115.75 m -0.149851,-0.36177 M 12.061341,115 m 0.05111,-0.38823 M 12.262303,114.25 m 0.238378,-0.31066 m 0.31066,-0.23838 m 0.361771,-0.14985 m 0.388229,-0.0511 m 0.388229,0.0511 m 0.361771,0.14986 m 0.31066,0.23838 m 0.238378,0.31066 m 0.149851,0.36177 m 0.05111,0.38823 m -0.05111,0.38823 m -0.149852,0.36177 M 14.622,116.06067 m -0.31066,0.23838 m -0.361771,0.14985"
     inkscape:connector-curvature="0" />
  <path
     id="face6-interior"
     style="fill:none;stroke:#000000;stroke-width:0.35277778;stroke-linecap:round;stroke-linejoin:round;stroke-miterlimit:4;stroke-dasharray:none;stroke-opacity:1"
     d="m 193.73563,140.91379 m 0,14.24741 m 2,0 m 0,-1.3 m 2,0 m 0,1.3 m 3,0 m 0,3 m -3,0 m 0,1.3 m -2,0 m 0,-1.3 m -2,0 m 0,6 m 200,0 m 0,-6 m -2,0 m 0,1.3 m -2,0 m 0,-1.3 m -3,0 m 0,-3 m 3,0 m 0,-1.3 m 2,0 m 0,1.3 m 2,0 m 0,-14.24741 m 3,0 m 0,-12 m -3,0 m 0,-19.6 m 3,0 m 0,-9 m -3,0 m 0,-15.152589 m -5,0 m 0,-3 m -15,0 m 0,3 m -13.5,0 m 0,2 m 1.3,0 m 0,2 m -1.3,0 m 0,2.999999 m -3,0 m 0,-2.999999 m -1.3,0 m 0,-2 m 1.3,0 m 0,-2 m -13.5,0 m 0,-3 m -15,0 m 0,3 m -70,0 m 0,-3 m -15,0 m 0,3 m -13.5,0 m 0,2 m 1.3,0 m 0,2 m -1.3,0 m 0,2.999999 m -3,0 m 0,-2.999999 m -1.3,0 m 0,-2 m 1.3,0 m 0,-2 m -13.5,0 m 0,-3 m -15,0 m 0,3 m -5,0 m 0,15.152589 m -3,0 m 0,9 m 3,0 m 0,19.6 m -3,0 m 0,12 m 186.7,5.29 m 0.39082,0.0514 m 0.36418,0.15085 m 0.31273,0.23996 m 0.23997,0.31274 m 0.15085,0.36418 m 0.0515,0.39082 m -0.0515,0.39081 m -0.15085,0.36419 m -0.23997,0.31273 m -0.31273,0.23996 m -0.36418,0.15085 m -0.39082,0.0515 m -0.39082,-0.0515 m -0.36418,-0.15085 m -0.31273,-0.23996 m -0.23997,-0.31273 m -0.15085,-0.36419 m -0.0515,-0.39081 m 0.0515,-0.39082 m 0.15085,-0.36418 m 0.23997,-0.31274 m 0.31273,-0.23996 m 0.36418,-0.15085 M 328.6976,134.55282 m -0.31401,0.23828 m -0.36499,0.14889 m -0.39109,0.0493 m -0.39054,-0.0536 m -0.36336,-0.1528 m -0.31144,-0.24165 m -0.23828,-0.31402 m -0.14889,-0.36499 m -0.0494,-0.39109 m 0.0536,-0.39053 m 0.1528,-0.36337 m 0.24165,-0.31143 m 0.31402,-0.23828 m 0.36499,-0.14889 m 0.39108,-0.0494 m 0.39054,0.0536 m 0.36336,0.15281 m 0.31144,0.24165 m 0.23828,0.31401 m 0.14889,0.36499 m 0.0494,0.39109 m -0.0536,0.39053 m -0.15281,0.36337 m 49.4872,-36.08619 m 0.36418,0.15085 m 0.31273,0.23996 m 0.23997,0.31274 m 0.15085,0.36418 m 0.0514,0.39082 m -0.0514,0.39081 m -0.15085,0.36419 m -0.23997,0.31273 m -0.31273,0.23996 m -0.36418,0.15085 m -0.39082,0.0515 m -0.39082,-0.0515 m -0.36418,-0.15085 m -0.31273,-0.23996 m -0.23997,-0.31273 m -0.15085,-0.36419 m -0.0514,-0.39081 m 0.0514,-0.39082 m 0.15085,-0.36418 m 0.23997,-0.31274 m 0.31273,-0.23996 m 0.36418,-0.15085 m 0.39082,-0.0515 m -49.70918,6.05145 m 0.36418,0.15085 m 0.31273,0.23996 m 0.23997,0.31274 m 0.15085,0.36418 m 0.0515,0.39082 m -0.0515,0.39081 m -0.15085,0.36419 m -0.23997,0.31273 m -0.31273,0.23996 m -0.36418,0.15085 m -0.39082,0.0515 m -0.39082,-0.0515 m -0.36418,-0.15085 m -0.31273,-0.23996 m -0.23997,-0.31273 m -0.15085,-0.36419 m -0.0515,-0.39081 m 0.0515,-0.39082 m 0.15085,-0.36418 m 0.23997,-0.31274 m 0.31273,-0.23996 m 0.36418,-0.15085 m 0.39082,-0.0515 m -49.2,-13.942589 m 0,9.999999 m -3,0 m 0,-9.999999 m 2.94889,17.611769 m 0.0511,0.38823 m -0.0511,0.38823 m -0.14985,0.36177 m -0.23838,0.31066 m -0.31066,0.23838 m -0.36177,0.14985 m -0.38823,0.0511 m -0.38823,-0.0511 M 276.48562,109.46 m -0.31066,-0.23838 m -0.23838,-0.31066 m -0.14985,-0.36177 m -0.0511,-0.38823 m 0.0511,-0.38823 m 0.14985,-0.36177 m 0.23838,-0.31066 m 0.31066,-0.23838 m 0.36177,-0.14985 m 0.38823,-0.0511 m 0.38823,0.0511 m 0.36177,0.14985 m 0.31066,0.23838 m 0.23838,0.31066 m -59.01232,36.40898 M 218.909,139.1612 m 0.61334,-4.65874 m 1.7982,-4.34126 m 2.86054,-3.72792 m 3.72792,-2.86054 m 4.34126,-1.7982 m 4.65874,-0.61334 m 4.65874,0.61334 m 4.34126,1.7982 m 3.72792,2.86054 m 2.86054,3.72792 m 1.79821,4.34126 m 0.61333,4.65874 m -0.61333,4.65874 m -1.79821,4.34126 m -2.86054,3.72792 m -3.72792,2.86054 m -4.34126,1.79821 m -4.65874,0.61333 m -4.65874,-0.61333 m -4.34126,-1.79821 m -3.72792,-2.86054 m -2.86054,-3.72792 M 251.909,124.89325 m -0.41421,-0.31784 m -0.31784,-0.41421 m -0.1998,-0.48236 m -0.0682,-0.51764 m 0.0682,-0.51764 m 0.1998,-0.48236 m 0.31784,-0.41421 m 0.41421,-0.31784 m 0.48236,-0.1998 m 0.51764,-0.0682 m 0.51764,0.0682 m 0.48236,0.1998 m 0.41421,0.31784 m 0.31784,0.41421 m 0.1998,0.48236 m 0.0682,0.51764 m -0.0682,0.51764 m -0.1998,0.48236 m -0.31784,0.41421 m -0.41421,0.31784 m -0.48236,0.1998 m -0.51764,0.0682 m -0.51764,-0.0682 m 0,28.1363 m 0.51764,-0.0682 m 0.51764,0.0682 m 0.48236,0.1998 m 0.41421,0.31784 m 0.31784,0.41421 m 0.1998,0.48236 m 0.0682,0.51764 m -0.0682,0.51764 m -0.1998,0.48236 m -0.31784,0.41421 m -0.41421,0.31784 m -0.48236,0.1998 m -0.51764,0.0682 m -0.51764,-0.0682 m -0.48236,-0.1998 m -0.41421,-0.31784 m -0.31784,-0.41421 m -0.1998,-0.48236 m -0.0682,-0.51764 m 0.0682,-0.51764 m 0.1998,-0.48236 m 0.31784,-0.41421 m 0.41421,-0.31784 m -31.51764,-0.1998 m 0.51764,-0.0682 m 0.51764,0.0682 m 0.48236,0.1998 m 0.41421,0.31784 m 0.31784,0.41421 m 0.1998,0.48236 m 0.0682,0.51764 m -0.0682,0.51764 m -0.1998,0.48236 m -0.31784,0.41421 m -0.41421,0.31784 m -0.48236,0.1998 m -0.51764,0.0682 m -0.51764,-0.0682 m -0.48236,-0.1998 m -0.41421,-0.31784 m -0.31784,-0.41421 m -0.1998,-0.48236 m -0.0682,-0.51764 m 0.0682,-0.51764 m 0.1998,-0.48236 m 0.31784,-0.41421 m 0.41421,-0.31784 m -0.41421,-31.68216 m 0.41421,-0.31784 m 0.48236,-0.1998 m 0.51764,-0.0682 m 0.51764,0.0682 m 0.48236,0.1998 m 0.41421,0.31784 m 0.31784,0.41421 m 0.1998,0.48236 m 0.0682,0.51764 m -0.0682,0.51764 m -0.1998,0.48236 m -0.31784,0.41421 m -0.41421,0.31784 m -0.48236,0.1998 m -0.51764,0.0682 m -0.51764,-0.0682 m -0.48236,-0.1998 m -0.41421,-0.31784 m -0.31784,-0.41421 m -0.1998,-0.48236 m -0.0682,-0.51764 m 0.0682,-0.51764 m 0.1998,-0.48236"
     inkscape:connector-curvature="0" />
  <path
     id="path40"
     style="fill:none;stroke:#000000;stroke-width:0.35277778;stroke-linecap:round;stroke-linejoin:round;stroke-miterlimit:4;stroke-dasharray:none;stroke-opacity:1"
     d="m 9.0613445,5 m 0,84 m -2,8 m 0,36 m 2,8 m 0,24 m 5.5366255,0 m -0.03663,-2 m -1.3,0 m 0,-2 m 1.3,0 m 0,-3 m 3,0 m 0,3 m 1.3,0 m 0,2 m -1.3,0 m 0,2 m 6.5,0 m 0,3 m 10,0 m 0,-3 m 5,0 m 0,-2 m 3,0 m 0,-15 m -3,0 m 0,-20 m 3,0 m 0,-20 m -3,0 m 0,-40 m 3,0 m 0,-20 m -3,0 m 0,-20 m 3,0 m 0,-15 m -3,0 m 0,-8 m -5,0 m 0,-3 m -10,0 m 0,3 m -6.5,0 m 0,2 m 1.3,0 m 0,2 m -1.3,0 m 0,3 m -3,0 m 0,-3 m -1.3,0 m 0,-2 m 1.3,0 m 0,-2 m 0.5,128 m -3,0 m 0,-10 m 3,0 m -3,-26 m 3,0 m 0,10 m -3,0 m 1.5,9.5 m -0.388229,-0.0511 m -0.361771,-0.14986 m -0.31066,-0.23838 M 12.262302,115.75 m -0.149851,-0.36177 M 12.061341,115 m 0.05111,-0.38823 M 12.262303,114.25 m 0.238378,-0.31066 m 0.31066,-0.23838 m 0.361771,-0.14985 m 0.388229,-0.0511 m 0.388229,0.0511 m 0.361771,0.14986 m 0.31066,0.23838 m 0.238378,0.31066 m 0.149851,0.36177 m 0.05111,0.38823 m -0.05111,0.38823 m -0.149852,0.36177 M 14.622,116.06067 m -0.31066,0.23838 m -0.361771,0.14985"
     inkscape:connector-curvature="0" />
  <path
     id="path52"
     style="fill:none;stroke:#000000;stroke-width:0.35277778;stroke-linecap:round;stroke-linejoin:round;stroke-miterlimit:4;stroke-dasharray:none;stroke-opacity:1"
     d="m 193.73563,140.91379 m 0,14.24741 m 2,0 m 0,-1.3 m 2,0 m 0,1.3 m 3,0 m 0,3 m -3,0 m 0,1.3 m -2,0 m 0,-1.3 m -2,0 m 0,6 m 200,0 m 0,-6 m -2,0 m 0,1.3 m -2,0 m 0,-1.3 m -3,0 m 0,-3 m 3,0 m 0,-1.3 m 2,0 m 0,1.3 m 2,0 m 0,-14.24741 m 3,0 m 0,-12 m -3,0 m 0,-19.6 m 3,0 m 0,-9 m -3,0 m 0,-15.152589 m -5,0 m 0,-3 m -15,0 m 0,3 m -13.5,0 m 0,2 m 1.3,0 m 0,2 m -1.3,0 m 0,2.999999 m -3,0 m 0,-2.999999 m -1.3,0 m 0,-2 m 1.3,0 m 0,-2 m -13.5,0 m 0,-3 m -15,0 m 0,3 m -70,0 m 0,-3 m -15,0 m 0,3 m -13.5,0 m 0,2 m 1.3,0 m 0,2 m -1.3,0 m 0,2.999999 m -3,0 m 0,-2.999999 m -1.3,0 m 0,-2 m 1.3,0 m 0,-2 m -13.5,0 m 0,-3 m -15,0 m 0,3 m -5,0 m 0,15.152589 m -3,0 m 0,9 m 3,0 m 0,19.6 m -3,0 m 0,12 m 186.7,5.29 m 0.39082,0.0514 m 0.36418,0.15085 m 0.31273,0.23996 m 0.23997,0.31274 m 0.15085,0.36418 m 0.0515,0.39082 m -0.0515,0.39081 m -0.15085,0.36419 m -0.23997,0.31273 m -0.31273,0.23996 m -0.36418,0.15085 m -0.39082,0.0515 m -0.39082,-0.0515 m -0.36418,-0.15085 m -0.31273,-0.23996 m -0.23997,-0.31273 m -0.15085,-0.36419 m -0.0515,-0.39081 m 0.0515,-0.39082 m 0.15085,-0.36418 m 0.23997,-0.31274 m 0.31273,-0.23996 m 0.36418,-0.15085 M 328.6976,134.55282 m -0.31401,0.23828 m -0.36499,0.14889 m -0.39109,0.0493 m -0.39054,-0.0536 m -0.36336,-0.1528 m -0.31144,-0.24165 m -0.23828,-0.31402 m -0.14889,-0.36499 m -0.0494,-0.39109 m 0.0536,-0.39053 m 0.1528,-0.36337 m 0.24165,-0.31143 m 0.31402,-0.23828 m 0.36499,-0.14889 m 0.39108,-0.0494 m 0.39054,0.0536 m 0.36336,0.15281 m 0.31144,0.24165 m 0.23828,0.31401 m 0.14889,0.36499 m 0.0494,0.39109 m -0.0536,0.39053 m -0.15281,0.36337 m 49.4872,-36.08619 m 0.36418,0.15085 m 0.31273,0.23996 m 0.23997,0.31274 m 0.15085,0.36418 m 0.0514,0.39082 m -0.0514,0.39081 m -0.15085,0.36419 m -0.23997,0.31273 m -0.31273,0.23996 m -0.36418,0.15085 m -0.39082,0.0515 m -0.39082,-0.0515 m -0.36418,-0.15085 m -0.31273,-0.23996 m -0.23997,-0.31273 m -0.15085,-0.36419 m -0.0514,-0.39081 m 0.0514,-0.39082 m 0.15085,-0.36418 m 0.23997,-0.31274 m 0.31273,-0.23996 m 0.36418,-0.15085 m 0.39082,-0.0515 m -49.70918,6.05145 m 0.36418,0.15085 m 0.31273,0.23996 m 0.23997,0.31274 m 0.15085,0.36418 m 0.0515,0.39082 m -0.0515,0.39081 m -0.15085,0.36419 m -0.23997,0.31273 m -0.31273,0.23996 m -0.36418,0.15085 m -0.39082,0.0515 m -0.39082,-0.0515 m -0.36418,-0.15085 m -0.31273,-0.23996 m -0.23997,-0.31273 m -0.15085,-0.36419 m -0.0515,-0.39081 m 0.0515,-0.39082 m 0.15085,-0.36418 m 0.23997,-0.31274 m 0.31273,-0.23996 m 0.36418,-0.15085 m 0.39082,-0.0515 m -49.2,-13.942589 m 0,9.999999 m -3,0 m 0,-9.999999 m 2.94889,17.611769 m 0.0511,0.38823 m -0.0511,0.38823 m -0.14985,0.36177 m -0.23838,0.31066 m -0.31066,0.23838 m -0.36177,0.14985 m -0.38823,0.0511 m -0.38823,-0.0511 M 276.48562,109.46 m -0.31066,-0.23838 m -0.23838,-0.31066 m -0.14985,-0.36177 m -0.0511,-0.38823 m 0.0511,-0.38823 m 0.14985,-0.36177 m 0.23838,-0.31066 m 0.31066,-0.23838 m 0.36177,-0.14985 m 0.38823,-0.0511 m 0.38823,0.0511 m 0.36177,0.14985 m 0.31066,0.23838 m 0.23838,0.31066 m -59.01232,36.40898 M 218.909,139.1612 m 0.61334,-4.65874 m 1.7982,-4.34126 m 2.86054,-3.72792 m 3.72792,-2.86054 m 4.34126,-1.7982 m 4.65874,-0.61334 m 4.65874,0.61334 m 4.34126,1.7982 m 3.72792,2.86054 m 2.86054,3.72792 m 1.79821,4.34126 m 0.61333,4.65874 m -0.61333,4.65874 m -1.79821,4.34126 m -2.86054,3.72792 m -3.72792,2.86054 m -4.34126,1.79821 m -4.65874,0.61333 m -4.65874,-0.61333 m -4.34126,-1.79821 m -3.72792,-2.86054 m -2.86054,-3.72792 M 251.909,124.89325 m -0.41421,-0.31784 m -0.31784,-0.41421 m -0.1998,-0.48236 m -0.0682,-0.51764 m 0.0682,-0.51764 m 0.1998,-0.48236 m 0.31784,-0.41421 m 0.41421,-0.31784 m 0.48236,-0.1998 m 0.51764,-0.0682 m 0.51764,0.0682 m 0.48236,0.1998 m 0.41421,0.31784 m 0.31784,0.41421 m 0.1998,0.48236 m 0.0682,0.51764 m -0.0682,0.51764 m -0.1998,0.48236 m -0.31784,0.41421 m -0.41421,0.31784 m -0.48236,0.1998 m -0.51764,0.0682 m -0.51764,-0.0682 m 0,28.1363 m 0.51764,-0.0682 m 0.51764,0.0682 m 0.48236,0.1998 m 0.41421,0.31784 m 0.31784,0.41421 m 0.1998,0.48236 m 0.0682,0.51764 m -0.0682,0.51764 m -0.1998,0.48236 m -0.31784,0.41421 m -0.41421,0.31784 m -0.48236,0.1998 m -0.51764,0.0682 m -0.51764,-0.0682 m -0.48236,-0.1998 m -0.41421,-0.31784 m -0.31784,-0.41421 m -0.1998,-0.48236 m -0.0682,-0.51764 m 0.0682,-0.51764 m 0.1998,-0.48236 m 0.31784,-0.41421 m 0.41421,-0.31784 m -31.51764,-0.1998 m 0.51764,-0.0682 m 0.51764,0.0682 m 0.48236,0.1998 m 0.41421,0.31784 m 0.31784,0.41421 m 0.1998,0.48236 m 0.0682,0.51764 m -0.0682,0.51764 m -0.1998,0.48236 m -0.31784,0.41421 m -0.41421,0.31784 m -0.48236,0.1998 m -0.51764,0.0682 m -0.51764,-0.0682 m -0.48236,-0.1998 m -0.41421,-0.31784 m -0.31784,-0.41421 m -0.1998,-0.48236 m -0.0682,-0.51764 m 0.0682,-0.51764 m 0.1998,-0.48236 m 0.31784,-0.41421 m 0.41421,-0.31784 m -0.41421,-31.68216 m 0.41421,-0.31784 m 0.48236,-0.1998 m 0.51764,-0.0682 m 0.51764,0.0682 m 0.48236,0.1998 m 0.41421,0.31784 m 0.31784,0.41421 m 0.1998,0.48236 m 0.0682,0.51764 m -0.0682,0.51764 m -0.1998,0.48236 m -0.31784,0.41421 m -0.41421,0.31784 m -0.48236,0.1998 m -0.51764,0.0682 m -0.51764,-0.0682 m -0.48236,-0.1998 m -0.41421,-0.31784 m -0.31784,-0.41421 m -0.1998,-0.48236 m -0.0682,-0.51764 m 0.0682,-0.51764 m 0.1998,-0.48236"
     inkscape:connector-curvature="0" />
</svg>
